<?xml version="1.0" encoding="UTF-8"?>
<svg version="1.1" xmlns="http://www.w3.org/2000/svg" width="368" height="369">
<path d="M0 0 C1.65034192 1.41141182 3.29674248 2.82745771 4.9375 4.25 C6.16486971 5.23141819 7.39368388 6.21103768 8.625 7.1875 C9.388125 7.868125 10.15125 8.54875 10.9375 9.25 C10.9375 9.91 10.9375 10.57 10.9375 11.25 C14.54907276 9.16926635 18.16030795 7.08794837 21.77124023 5.00610352 C22.99803706 4.29891404 24.22492375 3.59188043 25.4519043 2.88500977 C27.22208291 1.86516264 28.99193069 0.84474343 30.76171875 -0.17578125 C32.35632935 -1.09484253 32.35632935 -1.09484253 33.9831543 -2.0324707 C35.89021285 -3.14115238 37.77687125 -4.28606457 39.63598633 -5.47338867 C41.9375 -6.75 41.9375 -6.75 44.9375 -6.75 C45.57026855 -5.6347998 45.57026855 -5.6347998 46.21582031 -4.49707031 C48.2038983 -0.99662915 50.19509472 2.50202075 52.1875 6 C52.5469873 6.63171112 52.90647461 7.26342224 53.27685547 7.91427612 C58.52768042 17.13441193 63.87523299 26.2835813 69.48144531 35.29394531 C69.94131836 36.04385742 70.40119141 36.79376953 70.875 37.56640625 C71.27589844 38.21037354 71.67679687 38.85434082 72.08984375 39.51782227 C72.9375 41.25 72.9375 41.25 72.9375 44.25 C72.28265625 44.61762451 71.6278125 44.98524902 70.953125 45.36401367 C67.94680716 47.05320974 64.9421464 48.7453328 61.9375 50.4375 C60.90753906 51.01564453 59.87757813 51.59378906 58.81640625 52.18945312 C53.0985505 55.41257564 47.47056643 58.71867996 41.9375 62.25 C42.1540625 63.14074219 42.370625 64.03148438 42.59375 64.94921875 C49.43253025 96.04011471 44.95108095 129.17005031 27.9375 156.25 C22.5529398 164.12887853 16.47662288 171.31200271 9.9375 178.25 C9.06158203 179.20519531 9.06158203 179.20519531 8.16796875 180.1796875 C-6.14329514 195.26181572 -27.18675525 205.01695472 -47.0625 210.25 C-48.82013672 210.73146484 -48.82013672 210.73146484 -50.61328125 211.22265625 C-82.50462167 218.58746634 -116.44488691 211.93556124 -144.30419922 195.36083984 C-149.53273909 192.05761068 -154.31165001 188.19637272 -159.0625 184.25 C-159.88492188 183.58097656 -160.70734375 182.91195312 -161.5546875 182.22265625 C-167.50999281 177.18434432 -172.32857716 171.43112577 -177.0625 165.25 C-177.97322266 164.08017578 -177.97322266 164.08017578 -178.90234375 162.88671875 C-196.97827544 138.49855694 -204.18248312 106.95870128 -200.29296875 77.04882812 C-197.34528574 57.46779098 -190.12810797 39.02408488 -178.0625 23.25 C-177.44632813 22.43015625 -176.83015625 21.6103125 -176.1953125 20.765625 C-155.54753478 -5.93551728 -125.94433217 -21.34268478 -92.8112793 -25.87646484 C-60.0974443 -29.97345367 -25.69626853 -20.84791598 0 0 Z M-128.125 48.875 C-140.94356067 64.58807437 -146.65894937 81.9287157 -145.0625 102.25 C-142.97214606 117.26678661 -135.71048796 129.72855858 -125.0625 140.25 C-124.37542969 140.95898438 -123.68835938 141.66796875 -122.98046875 142.3984375 C-110.86080091 154.13585237 -93.59119563 159.65067996 -76.91796875 159.3984375 C-61.74419694 158.60965046 -47.95078557 154.98034595 -36.0625 145.25 C-35.21945313 144.569375 -34.37640625 143.88875 -33.5078125 143.1875 C-18.61349807 130.51148772 -12.05792537 114.97877158 -9.77734375 95.859375 C-9.07804971 79.92763263 -15.08259306 63.681671 -25.5 51.75 C-27.00024717 50.22941049 -28.52037024 48.72809669 -30.0625 47.25 C-30.72507812 46.55648437 -31.38765625 45.86296875 -32.0703125 45.1484375 C-36.54044325 40.74629353 -41.38872863 37.76244768 -46.9375 34.9375 C-47.89088257 34.44902588 -47.89088257 34.44902588 -48.86352539 33.95068359 C-58.18132195 29.44354668 -67.25887522 27.74985476 -77.5625 27.875 C-78.51769531 27.86339844 -79.47289062 27.85179687 -80.45703125 27.83984375 C-98.18455253 27.91180933 -115.99940358 35.94103049 -128.125 48.875 Z " fill="#FA933C" transform="translate(255.0625,30.75)"/>
<path d="M0 0 C18.15 0 36.3 0 55 0 C56.03229377 3.09688131 57.06349375 6.19416205 58.078125 9.296875 C64.3217098 27.69463821 74.70235984 40.62745738 92 49.75 C96.84393415 52.0689858 101.79339294 53.70491118 107 55 C107.71800781 55.18433594 108.43601562 55.36867188 109.17578125 55.55859375 C127.42364339 58.41061093 145.57227443 55.36850883 161 45 C176.58518521 33.14212084 184.2744538 18.90218481 189 0 C207.48 0 225.96 0 245 0 C243.82994258 15.21074646 243.82994258 15.21074646 241.8125 22.4375 C241.58892822 23.24896484 241.36535645 24.06042969 241.13500977 24.89648438 C237.91145882 36.20624981 233.23943637 45.9809329 227.0625 55.9375 C226.57257568 56.73091797 226.08265137 57.52433594 225.57788086 58.34179688 C222.61205327 62.97128595 219.43712141 66.83726311 215.41577148 70.59204102 C213.88457301 71.96514457 213.88457301 71.96514457 213 74 C212.34 74 211.68 74 211 74 C210.77570313 74.56460938 210.55140625 75.12921875 210.3203125 75.7109375 C200.70181427 92.38679539 173.15865476 103.04331566 155.5625 107.8125 C121.9509194 116.37855816 86.95364265 111.74993187 57.01953125 94.22412109 C48.53536922 89.08152095 41.1991127 82.79091559 34 76 C33.37351563 75.42636719 32.74703125 74.85273438 32.1015625 74.26171875 C14.93624517 57.98961929 3.59754775 33.0842647 0 10 C0 6.7 0 3.4 0 0 Z " fill="#F9933C" transform="translate(55,252)"/>
<path d="M0 0 C18.15 0 36.3 0 55 0 C54 13 54 13 53 18 C52.67 18 52.34 18 52 18 C51.94581674 15.91695462 51.90712449 13.83350232 51.875 11.75 C51.85179687 10.58984375 51.82859375 9.4296875 51.8046875 8.234375 C52 5 52 5 54 1 C36.18 1 18.36 1 0 1 C0 0.67 0 0.34 0 0 Z " fill="#CC995D" transform="translate(245,252)"/>
<path d="M0 0 C0.66 1.32 1.32 2.64 2 4 C1.01 4.495 1.01 4.495 0 5 C0.33 5.99 0.66 6.98 1 8 C-0.010625 8.825 -1.02125 9.65 -2.0625 10.5 C-5.61070956 13.50842109 -8.51715957 16.83682993 -11.421875 20.4609375 C-13 22 -13 22 -16 22 C-15.36384766 21.41605469 -15.36384766 21.41605469 -14.71484375 20.8203125 C-8.45405853 14.8484866 -2.99070387 8.19890524 0 0 Z " fill="#EA924C" transform="translate(238,151)"/>
<path d="M0 0 C0.6015625 1.83984375 0.6015625 1.83984375 1 4 C-1.9737314 8.68934567 -5.41686022 11.36856583 -10.8125 12.6875 C-11.534375 12.790625 -12.25625 12.89375 -13 13 C-8.66666667 8.66666667 -4.33333333 4.33333333 0 0 Z " fill="#E99849" transform="translate(228,286)"/>
<path d="M0 0 C4.75055943 0.66674518 6.39663391 3.59571588 9.21875 7.1875 C11.16351138 9.16638001 12.29363054 9.62015867 15 10 C15 10.66 15 11.32 15 12 C15.66 12 16.32 12 17 12 C17.33 13.32 17.66 14.64 18 16 C10.5272273 12.59573688 5.10489826 6.25350037 0 0 Z " fill="#E39453" transform="translate(84,322)"/>
<path d="M0 0 C2.31 0 4.62 0 7 0 C5.84826645 2.46800047 4.95216435 4.04783565 3 6 C2.54188325 7.97235333 2.54188325 7.97235333 2.375 10.125 C2.25125 11.40375 2.1275 12.6825 2 14 C1.67 14 1.34 14 1 14 C-0.20568053 9.32798795 -0.09382426 4.78503708 0 0 Z " fill="#F09244" transform="translate(55,253)"/>
<path d="M0 0 C1.11375 0.495 1.11375 0.495 2.25 1 C5.13883312 2.22782871 5.13883312 2.22782871 9 2 C9.2475 2.78375 9.495 3.5675 9.75 4.375 C10.72822087 7.13350832 10.72822087 7.13350832 13.0625 8 C13.701875 8.33 14.34125 8.66 15 9 C15.75 11.625 15.75 11.625 16 14 C15.030625 13.154375 14.06125 12.30875 13.0625 11.4375 C9.39385147 8.28005659 5.5824906 5.33700875 1.72265625 2.41796875 C1.15417969 1.95003906 0.58570313 1.48210937 0 1 C0 0.67 0 0.34 0 0 Z " fill="#DC9558" transform="translate(213,68)"/>
<path d="M0 0 C0.66 0 1.32 0 2 0 C4 2 4 2 4.125 4.625 C4.08375 5.40875 4.0425 6.1925 4 7 C4.99 7 5.98 7 7 7 C8.125 9.25 8.125 9.25 9 12 C8.0546875 14.171875 8.0546875 14.171875 7 16 C5.82845707 13.71070947 4.66261926 11.41881638 3.5 9.125 C3.16613281 8.47402344 2.83226563 7.82304687 2.48828125 7.15234375 C0 2.2265625 0 2.2265625 0 0 Z " fill="#EB944B" transform="translate(63,288)"/>
<path d="M0 0 C-0.33 1.65 -0.66 3.3 -1 5 C-1.99 4.67 -2.98 4.34 -4 4 C-3.67 5.65 -3.34 7.3 -3 9 C-5.52588702 6.63707344 -6.88820837 5.33537489 -8 2 C-6.14210462 -1.71579076 -3.44525918 -1.06921837 0 0 Z " fill="#F39547" transform="translate(239,82)"/>
<path d="M0 0 C0.66 0 1.32 0 2 0 C2.99 1.98 3.98 3.96 5 6 C-0.65020618 5.39891424 -5.66164461 3.92471317 -11 2 C-8.3775669 1.23558865 -7.11099018 0.97621639 -4.375 1.5625 C-3.59125 1.706875 -2.8075 1.85125 -2 2 C-1.34 1.34 -0.68 0.68 0 0 Z " fill="#ED9548" transform="translate(140,353)"/>
<path d="M0 0 C0.33 1.32 0.66 2.64 1 4 C0.01 3.34 -0.98 2.68 -2 2 C-2.23460937 2.64453125 -2.46921875 3.2890625 -2.7109375 3.953125 C-4 6 -4 6 -6.1640625 6.609375 C-6.97617187 6.65578125 -7.78828125 6.7021875 -8.625 6.75 C-9.44226563 6.80671875 -10.25953125 6.8634375 -11.1015625 6.921875 C-11.72804688 6.94765625 -12.35453125 6.9734375 -13 7 C-9.48279054 3.25760335 -5.29643413 0 0 0 Z " fill="#E79447" transform="translate(300,24)"/>
<path d="M0 0 C2.06681445 2.61071299 3.93109607 5.33837839 5.75 8.125 C6.19859375 8.80820313 6.6471875 9.49140625 7.109375 10.1953125 C7.40328125 10.79085937 7.6971875 11.38640625 8 12 C7.67 12.66 7.34 13.32 7 14 C6.236875 13.195625 5.47375 12.39125 4.6875 11.5625 C2.20569102 8.83200976 2.20569102 8.83200976 -1 8 C-0.67 5.36 -0.34 2.72 0 0 Z " fill="#E99350" transform="translate(115,150)"/>
<path d="M0 0 C0.99 0 1.98 0 3 0 C2.85805236 2.06277107 2.71127784 4.12521031 2.5625 6.1875 C2.48128906 7.33605469 2.40007812 8.48460937 2.31640625 9.66796875 C2.04596188 12.51598171 1.62478253 15.21210482 1 18 C0.67 18 0.34 18 0 18 C-0.05418326 15.91695462 -0.09287551 13.83350232 -0.125 11.75 C-0.14820313 10.58984375 -0.17140625 9.4296875 -0.1953125 8.234375 C-0.0103949 5.17213954 0.39176977 3.55797249 2 1 C1.34 0.67 0.68 0.34 0 0 Z " fill="#E59451" transform="translate(297,252)"/>
<path d="M0 0 C2.31 0.66 4.62 1.32 7 2 C6.34 2.66 5.68 3.32 5 4 C5.45375 4.391875 5.9075 4.78375 6.375 5.1875 C8.27642919 7.30832487 9.06204028 9.33042235 10 12 C5.22864787 8.42148591 2.70923672 5.31427203 0 0 Z " fill="#EA964D" transform="translate(76,192)"/>
<path d="M0 0 C3.29078593 2.79716804 5.06305458 6.19528578 7 10 C6.67 10.66 6.34 11.32 6 12 C5.67 11.01 5.34 10.02 5 9 C4.34 9 3.68 9 3 9 C2.67 8.34 2.34 7.68 2 7 C1.01 7.495 1.01 7.495 0 8 C-0.98120464 4.94736336 -0.98120464 3.05263664 0 0 Z " fill="#EB974A" transform="translate(315,52)"/>
<path d="M0 0 C0 0.66 0 1.32 0 2 C-1.03060547 2.48919922 -1.03060547 2.48919922 -2.08203125 2.98828125 C-3.43361328 3.64376953 -3.43361328 3.64376953 -4.8125 4.3125 C-5.70582031 4.74175781 -6.59914063 5.17101563 -7.51953125 5.61328125 C-10.02160771 6.83990932 -10.02160771 6.83990932 -11.57421875 8.73046875 C-12.04472656 9.14941406 -12.51523437 9.56835938 -13 10 C-15.08911133 9.5793457 -15.08911133 9.5793457 -17 9 C-14.54481265 7.49462965 -12.0861548 5.99555574 -9.625 4.5 C-8.92632812 4.07074219 -8.22765625 3.64148437 -7.5078125 3.19921875 C-2.2265625 0 -2.2265625 0 0 0 Z " fill="#E6914E" transform="translate(287,31)"/>
<path d="M0 0 C4.95 0.99 4.95 0.99 10 2 C8.68 2.33 7.36 2.66 6 3 C6 3.66 6 4.32 6 5 C6.66 5.33 7.32 5.66 8 6 C7.01 6.33 6.02 6.66 5 7 C3.5 5.625 3.5 5.625 2 4 C2 3.34 2 2.68 2 2 C1.34 2 0.68 2 0 2 C0 1.34 0 0.68 0 0 Z " fill="#ED934C" transform="translate(152,305)"/>
<path d="M0 0 C0.33 0.66 0.66 1.32 1 2 C0.0625 4.625 0.0625 4.625 -1 7 C-1.66 7 -2.32 7 -3 7 C-3 7.66 -3 8.32 -3 9 C-4.96147874 10.38938077 -6.96166576 11.7260411 -9 13 C-7.50923566 9.7173068 -5.61379679 7.06922559 -3.375 4.25 C-2.74335937 3.45078125 -2.11171875 2.6515625 -1.4609375 1.828125 C-0.97882813 1.22484375 -0.49671875 0.6215625 0 0 Z " fill="#E59750" transform="translate(84,45)"/>
<path d="M0 0 C-0.66 0 -1.32 0 -2 0 C-2.33 1.65 -2.66 3.3 -3 5 C-5.02045442 4.39816251 -7.02111039 3.72693904 -9 3 C-9.33 2.34 -9.66 1.68 -10 1 C-3.375 -1.125 -3.375 -1.125 0 0 Z " fill="#EC9346" transform="translate(203,306)"/>
<path d="M0 0 C2.20187672 2.20187672 3.28178929 4.22885682 4.6875 7 C5.14511719 7.886875 5.60273437 8.77375 6.07421875 9.6875 C6.37972656 10.450625 6.68523437 11.21375 7 12 C6.67 12.66 6.34 13.32 6 14 C3.5625 12.625 3.5625 12.625 1 10 C0.25976342 6.67414834 0.07139201 3.40085565 0 0 Z " fill="#E59450" transform="translate(113,265)"/>
<path d="M0 0 C0.33 0 0.66 0 1 0 C0.67 3.3 0.34 6.6 0 10 C-1.65 10.66 -3.3 11.32 -5 12 C-3.68938409 7.76570244 -2.05643741 3.92592596 0 0 Z " fill="#ED954F" transform="translate(70,64)"/>
<path d="M0 0 C0.33 0.99 0.66 1.98 1 3 C-1.31 4.65 -3.62 6.3 -6 8 C-6.99 7.34 -7.98 6.68 -9 6 C-6.03 4.02 -3.06 2.04 0 0 Z " fill="#ED934A" transform="translate(115,20)"/>
<path d="M0 0 C0 4.1041911 -1.45843064 5.84021107 -4 9 C-6.75 9.875 -6.75 9.875 -9 10 C-8.06409496 8.8944811 -7.12620142 7.79064547 -6.1875 6.6875 C-5.66542969 6.07261719 -5.14335938 5.45773438 -4.60546875 4.82421875 C-3.12827531 3.14575321 -1.59960869 1.56117966 0 0 Z " fill="#EB9752" transform="translate(94,35)"/>
<path d="M0 0 C2.0245738 1.93254772 3.42105792 3.63158688 5 6 C5 6.99 5 7.98 5 9 C4.34 9 3.68 9 3 9 C3 8.01 3 7.02 3 6 C1.68 6 0.36 6 -1 6 C-0.67 4.02 -0.34 2.04 0 0 Z " fill="#EA984B" transform="translate(323,66)"/>
<path d="M0 0 C1.18771723 3.42943519 0.80226223 5.37784675 -0.4375 8.75 C-0.86869141 9.94882813 -0.86869141 9.94882813 -1.30859375 11.171875 C-1.53675781 11.77515625 -1.76492188 12.3784375 -2 13 C-2.66 12.01 -3.32 11.02 -4 10 C-3.08977798 6.43496376 -1.74166645 3.23452341 0 0 Z " fill="#EA964E" transform="translate(296,151)"/>
<path d="M0 0 C4.455 0.99 4.455 0.99 9 2 C9.33 3.32 9.66 4.64 10 6 C6.40992874 4.66654496 3.20429093 3.1056769 0 1 C0 0.67 0 0.34 0 0 Z " fill="#E79552" transform="translate(108,223)"/>
<path d="M0 0 C2.64 1.65 5.28 3.3 8 5 C6 6 6 6 3.4375 5.3125 C2.633125 4.879375 1.82875 4.44625 1 4 C0.67 2.68 0.34 1.36 0 0 Z M-2 4 C-1.01 4 -0.02 4 1 4 C1 4.99 1 5.98 1 7 C0.01 6.67 -0.98 6.34 -2 6 C-2 5.34 -2 4.68 -2 4 Z " fill="#EB944C" transform="translate(136,176)"/>
<path d="M0 0 C1.32 0 2.64 0 4 0 C3.01 2.97 2.02 5.94 1 9 C0.67 9 0.34 9 0 9 C0 6.03 0 3.06 0 0 Z " fill="#EA944E" transform="translate(113,94)"/>
<path d="M0 0 C0.99 0 1.98 0 3 0 C2.67 1.32 2.34 2.64 2 4 C-3.41538462 5.23076923 -3.41538462 5.23076923 -6.375 4.0625 C-6.91125 3.711875 -7.4475 3.36125 -8 3 C-5.36 3 -2.72 3 0 3 C0 2.01 0 1.02 0 0 Z " fill="#F1964D" transform="translate(197,56)"/>
<path d="M0 0 C0.99 0 1.98 0 3 0 C2.45773019 3.79588866 0.79872437 5.47211993 -2 8 C-2.33 6.68 -2.66 5.36 -3 4 C-2.01 4 -1.02 4 0 4 C0 2.68 0 1.36 0 0 Z " fill="#EE944E" transform="translate(275,311)"/>
<path d="M0 0 C0.33 0.66 0.66 1.32 1 2 C1.99 2.33 2.98 2.66 4 3 C1.525 4.485 1.525 4.485 -1 6 C-1 5.34 -1 4.68 -1 4 C-1.99 3.67 -2.98 3.34 -4 3 C-2.68 2.01 -1.36 1.02 0 0 Z " fill="#F29647" transform="translate(251,215)"/>
<path d="M0 0 C-1.28524261 0.86380259 -2.57842419 1.71580369 -3.875 2.5625 C-4.59429687 3.03816406 -5.31359375 3.51382813 -6.0546875 4.00390625 C-6.69664062 4.33261719 -7.33859375 4.66132812 -8 5 C-8.66 4.67 -9.32 4.34 -10 4 C-9.3125 2.0625 -9.3125 2.0625 -8 0 C-4.70572419 -1.09809194 -3.33588828 -1.11196276 0 0 Z " fill="#EA944D" transform="translate(324,77)"/>
<path d="M0 0 C1 2 1 2 0.375 4.5 C-1 7 -1 7 -6 9 C-4.02 6.03 -2.04 3.06 0 0 Z " fill="#E59750" transform="translate(235,277)"/>
<path d="M0 0 C0.598125 0.20625 1.19625 0.4125 1.8125 0.625 C1.8125 1.285 1.8125 1.945 1.8125 2.625 C3.4625 2.955 5.1125 3.285 6.8125 3.625 C3.99435434 5.03407283 2.63972796 4.13372691 -0.3125 3.1875 C-1.22257813 2.90003906 -2.13265625 2.61257812 -3.0703125 2.31640625 C-3.76898438 2.08824219 -4.46765625 1.86007813 -5.1875 1.625 C-2.1875 -0.375 -2.1875 -0.375 0 0 Z " fill="#EA974C" transform="translate(141.1875,236.375)"/>
<path d="M0 0 C3.12270126 2.51830747 3.94523098 3.7261549 4.75 7.75 C4.8325 8.8225 4.915 9.895 5 11 C0 4.63636364 0 4.63636364 0 0 Z " fill="#E29555" transform="translate(64,170)"/>
<path d="M0 0 C2 1.5 2 1.5 4 4 C4.35800135 6.75871627 4.18660165 9.20097524 4 12 C2.09681116 9.14521674 1.5380901 7.58058692 0.875 4.3125 C0.70742188 3.50425781 0.53984375 2.69601563 0.3671875 1.86328125 C0.24601562 1.24839844 0.12484375 0.63351563 0 0 Z " fill="#E7954C" transform="translate(57,150)"/>
<path d="M0 0 C0.99 0.33 1.98 0.66 3 1 C0.6875 3.5 0.6875 3.5 -2 6 C-2.99 6 -3.98 6 -5 6 C-4.67 5.01 -4.34 4.02 -4 3 C-2.68 3 -1.36 3 0 3 C0 2.01 0 1.02 0 0 Z " fill="#EC944D" transform="translate(260,329)"/>
<path d="M0 0 C1.11375 0.495 1.11375 0.495 2.25 1 C5.13883312 2.22782871 5.13883312 2.22782871 9 2 C9.33 3.32 9.66 4.64 10 6 C6.00452264 5.38531118 3.22493358 3.34540624 0 1 C0 0.67 0 0.34 0 0 Z " fill="#EB9450" transform="translate(213,68)"/>
<path d="M0 0 C0.99 0 1.98 0 3 0 C3 0.66 3 1.32 3 2 C4.32 2 5.64 2 7 2 C7 2.66 7 3.32 7 4 C4.625 4.625 4.625 4.625 2 5 C1.34 4.34 0.68 3.68 0 3 C0.66 3 1.32 3 2 3 C2 2.34 2 1.68 2 1 C1.34 0.67 0.68 0.34 0 0 Z " fill="#F29547" transform="translate(119,346)"/>
<path d="M0 0 C0.99 0 1.98 0 3 0 C3 0.66 3 1.32 3 2 C3.66 2 4.32 2 5 2 C5.33 3.32 5.66 4.64 6 6 C3.53199953 4.84826645 1.95216435 3.95216435 0 2 C0 1.34 0 0.68 0 0 Z " fill="#EE9C4A" transform="translate(96,332)"/>
<path d="M0 0 C1.65 0 3.3 0 5 0 C3.35 1.98 1.7 3.96 0 6 C-1.125 2.25 -1.125 2.25 0 0 Z " fill="#E9944F" transform="translate(259,209)"/>
<path d="M0 0 C2.125 0.9375 2.125 0.9375 4 2 C3.01 2.495 3.01 2.495 2 3 C1.67 3.99 1.34 4.98 1 6 C0.01 4.35 -0.98 2.7 -2 1 C-1.34 0.67 -0.68 0.34 0 0 Z " fill="#F2924F" transform="translate(74,186)"/>
<path d="M0 0 C2.97 0.99 5.94 1.98 9 3 C7.02 3.99 7.02 3.99 5 5 C4.01 4.67 3.02 4.34 2 4 C2 3.34 2 2.68 2 2 C1.34 2 0.68 2 0 2 C0 1.34 0 0.68 0 0 Z " fill="#EB954C" transform="translate(147,183)"/>
<path d="M0 0 C0.66 0 1.32 0 2 0 C2 0.66 2 1.32 2 2 C4.97 2.495 4.97 2.495 8 3 C8 3.66 8 4.32 8 5 C4.7 4.01 1.4 3.02 -2 2 C-1.34 1.34 -0.68 0.68 0 0 Z " fill="#EB964D" transform="translate(128,232)"/>
<path d="M0 0 C1.2380014 3.57644848 0.74926071 6.33694766 0 10 C-1.74627478 7.38058783 -2.38722388 5.96175123 -3 3 C-2.01 3 -1.02 3 0 3 C0 2.01 0 1.02 0 0 Z " fill="#E89352" transform="translate(111,106)"/>
</svg>
