<?xml version="1.0" standalone="no"?>
<!DOCTYPE svg PUBLIC "-//W3C//DTD SVG 20010904//EN"
 "http://www.w3.org/TR/2001/REC-SVG-20010904/DTD/svg10.dtd">
<svg version="1.0" xmlns="http://www.w3.org/2000/svg"
 width="500.000000pt" height="500.000000pt" viewBox="0 0 500.000000 500.000000"
 preserveAspectRatio="xMidYMid meet">

<g transform="translate(0.000000,500.000000) scale(0.100000,-0.100000)"
fill="#000000" stroke="none">
<path d="M2215 4878 c-250 -28 -512 -124 -725 -267 -385 -257 -631 -644 -699
-1098 -15 -101 -13 -351 3 -453 99 -604 525 -1092 1116 -1278 199 -63 390 -85
622 -71 386 23 760 192 1038 469 256 255 406 548 460 900 22 147 6 466 -30
590 -5 19 -6 37 -2 41 4 4 103 62 220 130 159 92 212 127 209 139 -3 13 -362
637 -372 648 -2 2 -100 -53 -219 -122 -119 -69 -217 -126 -219 -126 -1 0 -30
25 -62 56 -361 337 -848 498 -1340 442z m348 -713 c341 -59 601 -282 713 -610
23 -69 28 -101 32 -225 6 -214 -30 -347 -139 -510 -133 -199 -341 -339 -571
-386 -126 -26 -346 -16 -458 21 -296 96 -506 306 -600 600 -17 54 -24 103 -27
210 -6 166 13 266 75 399 171 363 576 571 975 501z"/>
<path d="M780 1570 c0 -29 24 -163 41 -235 112 -455 419 -836 847 -1049 706
-352 1568 -159 2047 459 163 211 270 460 311 720 7 50 14 96 14 103 0 18 -729
18 -734 0 -2 -7 -11 -44 -20 -83 -40 -166 -162 -354 -299 -462 -87 -67 -243
-145 -352 -175 -115 -31 -336 -31 -450 1 -328 88 -581 340 -654 648 l-18 78
-367 3 c-255 1 -366 -1 -366 -8z"/>
</g>
</svg>
