<?xml version="1.0" encoding="UTF-8"?>
<svg version="1.1" xmlns="http://www.w3.org/2000/svg" width="500" height="500">
<path d="M0 0 C0.83208984 0.19867676 1.66417969 0.39735352 2.52148438 0.60205078 C32.97055764 8.09090723 59.4821027 23.32075809 82 45 C86.46529646 43.66866161 90.160393 41.89305883 94.140625 39.48046875 C94.70771179 39.14002029 95.27479858 38.79957184 95.85906982 38.44880676 C97.65943596 37.36721169 99.45505577 36.27806533 101.25 35.1875 C109.02092939 30.47935574 116.77670012 25.88898465 125 22 C130.93994156 31.37485985 136.4733938 40.97169077 141.98071289 50.60546875 C145.35550101 56.48855101 148.78327844 62.32637717 152.33984375 68.1015625 C152.69079605 68.67418823 153.04174835 69.24681396 153.40333557 69.83679199 C155.093132 72.59363008 156.7939306 75.34218484 158.51586914 78.07910156 C159.42067017 79.5520166 159.42067017 79.5520166 160.34375 81.0546875 C160.88193359 81.91562012 161.42011719 82.77655273 161.97460938 83.66357422 C163 86 163 86 162.85620117 88.17651367 C161.31799462 91.4524945 157.87266645 92.76093227 154.8125 94.4375 C153.27544099 95.3075334 151.73901594 96.17868748 150.203125 97.05078125 C149.37232422 97.51822754 148.54152344 97.98567383 147.68554688 98.46728516 C144.78366352 100.12346913 141.91370245 101.82685142 139.046875 103.54296875 C138.05324951 104.13730713 137.05962402 104.73164551 136.03588867 105.34399414 C134.068764 106.52226612 132.10276134 107.70241351 130.13793945 108.88452148 C129.237771 109.42020752 128.33760254 109.95589355 127.41015625 110.5078125 C126.60715088 110.98879395 125.80414551 111.46977539 124.97680664 111.96533203 C123 113 123 113 121 113 C121.19335938 113.57105469 121.38671875 114.14210938 121.5859375 114.73046875 C133.17301254 150.8110143 126.62128839 192.2615642 110.2109375 225.71484375 C90.05211293 264.42162792 55.58058239 292.88420578 14.22265625 306.30957031 C-2.08533174 311.37536447 -18.21761084 313.39425731 -35.25 313.3125 C-36.40503525 313.31026428 -36.40503525 313.31026428 -37.58340454 313.3079834 C-48.99059965 313.26830671 -59.88055025 312.66728234 -71 310 C-72.30545822 309.72790675 -73.6114589 309.45840418 -74.91796875 309.19140625 C-99.05192956 303.99813542 -120.8848535 292.33384889 -140 277 C-140.57685547 276.54415527 -141.15371094 276.08831055 -141.74804688 275.61865234 C-148.13644836 270.55899364 -153.85126826 265.32721923 -159 259 C-159.74507812 258.15308594 -160.49015625 257.30617188 -161.2578125 256.43359375 C-185.69178781 228.28473505 -198.22078523 192.73864782 -198.25 155.625 C-198.25067474 154.85889404 -198.25134949 154.09278809 -198.25204468 153.3034668 C-198.23651142 142.22520683 -197.81398667 131.76999717 -195 121 C-194.64433797 119.51957767 -194.28887874 118.03910661 -193.93359375 116.55859375 C-191.34422587 106.20660353 -187.67513372 96.58062931 -183 87 C-182.69191406 86.36465332 -182.38382813 85.72930664 -182.06640625 85.07470703 C-175.70639741 72.14026997 -167.79383613 60.65154554 -157.953125 50.10546875 C-156.35939276 48.38742539 -154.88541074 46.65134665 -153.4375 44.8125 C-150.24962945 41.13418783 -146.75722951 38.08520472 -143 35 C-142.07316406 34.23558594 -141.14632812 33.47117188 -140.19140625 32.68359375 C-102.18530616 2.04311108 -47.81569941 -11.64017355 0 0 Z M-98 92 C-99.01513672 92.87011719 -99.01513672 92.87011719 -100.05078125 93.7578125 C-115.23886511 107.81972581 -124.27796648 128.67106412 -125.31640625 149.171875 C-125.89575569 167.85016638 -122.26655812 182.82254785 -113 199 C-112.51660156 199.85078125 -112.03320312 200.7015625 -111.53515625 201.578125 C-98.69012056 222.27911006 -77.43385019 235.11608526 -54.15625 240.6796875 C-35.0461669 244.51220417 -15.71318416 241.84909615 2 234 C3.30710937 233.42958984 3.30710937 233.42958984 4.640625 232.84765625 C24.17148858 223.72711147 40.43047681 206.37785591 47.97265625 186.11328125 C48.31167969 185.08589844 48.65070313 184.05851562 49 183 C49.39058594 181.85917969 49.78117188 180.71835938 50.18359375 179.54296875 C56.57862467 158.05654997 53.99010643 134.95238527 44 115 C32.14015366 93.45015389 12.48201749 77.93160823 -11 71 C-42.60921618 62.32830722 -73.49658989 70.90326165 -98 92 Z " fill="#3276EF" transform="translate(277,16)"/>
<path d="M0 0 C24.42 0 48.84 0 74 0 C75.32 5.28 76.64 10.56 78 16 C79.15375053 19.073374 80.24366507 21.84822222 81.6875 24.75 C82.1990564 25.8028418 82.1990564 25.8028418 82.72094727 26.87695312 C93.41149887 48.12706252 111.60894786 61.86965796 133.61328125 69.9609375 C155.61295425 77.04855145 180.67444839 75.66550604 201.63671875 65.8125 C222.7416141 54.43889786 237.84526162 38.83326747 246 16 C247.32 10.72 248.64 5.44 250 0 C274.42 0 298.84 0 324 0 C323.3689805 8.20325355 322.76463339 15.65796939 320.9375 23.5625 C320.61531494 24.96133423 320.61531494 24.96133423 320.28662109 26.38842773 C310.58811337 66.20742219 284.06263706 99.90496378 250 122 C223.04067986 138.26361416 193.93431978 146.45334124 162.5 146.375 C161.71274536 146.37478851 160.92549072 146.37457703 160.11437988 146.37435913 C147.07132084 146.33951378 134.65918173 145.34991513 122 142 C121.28054199 141.81276367 120.56108398 141.62552734 119.81982422 141.43261719 C115.12947844 140.17271916 110.55733825 138.67534034 106 137 C105.32694824 136.75411133 104.65389648 136.50822266 103.96044922 136.25488281 C87.0950531 129.972237 71.8655046 121.47120355 58 110 C56.92816399 109.14187763 55.85523734 108.28511583 54.78125 107.4296875 C48.91098983 102.70936487 43.75086035 97.83827949 39 92 C38.25492188 91.15308594 37.50984375 90.30617188 36.7421875 89.43359375 C19.46649715 69.5313486 8.64646105 46.42491582 2.75 20.8125 C2.58661133 20.11253906 2.42322266 19.41257812 2.25488281 18.69140625 C0.88457805 12.38040776 0.54968909 6.59626903 0 0 Z " fill="#3276EF" transform="translate(79,341)"/>
<path d="M0 0 C24.42 0 48.84 0 74 0 C73.3278366 8.7381242 72.48674714 16.4375656 70.4375 24.8125 C70.08655273 26.2984668 70.08655273 26.2984668 69.72851562 27.81445312 C69.1610146 30.21185542 68.58485108 32.60678295 68 35 C67.67 35 67.34 35 67 35 C67.020625 33.7625 67.04125 32.525 67.0625 31.25 C67.06766681 28.3359175 66.93015558 25.79046673 66 23 C67.32 22.34 68.64 21.68 70 21 C69.95875 19.906875 69.9175 18.81375 69.875 17.6875 C70 13 70 13 72 2 C48.9 2 25.8 2 2 2 C1.34 3.32 0.68 4.64 0 6 C0 4.02 0 2.04 0 0 Z " fill="#4175D2" transform="translate(329,341)"/>
<path d="M0 0 C0.99 0.66 1.98 1.32 3 2 C-15.14946619 19 -15.14946619 19 -19 19 C-19 17.35 -19 15.7 -19 14 C-17 13 -17 13 -15 12 C-14.29875 11.608125 -13.5975 11.21625 -12.875 10.8125 C-12.25625 10.544375 -11.6375 10.27625 -11 10 C-10.34 10.33 -9.68 10.66 -9 11 C-9.33 10.01 -9.66 9.02 -10 8 C-9.3125 5.375 -9.3125 5.375 -8 3 C-5.08814875 1.64113609 -2.99887865 2.03607472 0 3 C0 2.01 0 1.02 0 0 Z " fill="#3B75DE" transform="translate(355,280)"/>
<path d="M0 0 C0.99 0.33 1.98 0.66 3 1 C-12.33904575 12.68971765 -12.33904575 12.68971765 -19 15 C-21.31640625 14.1484375 -21.31640625 14.1484375 -23 13 C-22 12 -22 12 -19.4375 11.9375 C-18.633125 11.958125 -17.82875 11.97875 -17 12 C-16.7525 11.38125 -16.505 10.7625 -16.25 10.125 C-14.75608298 7.58534107 -13.78460378 6.90090122 -11 6 C-8.75 6.375 -8.75 6.375 -7 7 C-6.67 5.35 -6.34 3.7 -6 2 C-4.02 2 -2.04 2 0 2 C0 1.34 0 0.68 0 0 Z " fill="#3D77DC" transform="translate(337,454)"/>
<path d="M0 0 C0.66 0 1.32 0 2 0 C3.35278115 1.98689731 4.68568305 3.98745218 6 6 C6.66 6.33 7.32 6.66 8 7 C8.625 9.5625 8.625 9.5625 9 12 C9.66 12 10.32 12 11 12 C11 11.01 11 10.02 11 9 C11.66 9 12.32 9 13 9 C14.61737483 13.62107093 15.85248597 18.2460133 17 23 C13.43105638 19.56347302 10.35473425 16.04059882 7.375 12.0625 C6.61960937 11.06347656 5.86421875 10.06445312 5.0859375 9.03515625 C3.07974999 6.11604072 1.49932892 3.20397996 0 0 Z M8 6 C10 7 10 7 10 7 Z " fill="#3F77DF" transform="translate(101,409)"/>
<path d="M0 0 C0.33 0 0.66 0 1 0 C1.09765625 6.15234375 1.09765625 6.15234375 1 8 C0.67 8.33 0.34 8.66 0 9 C-0.03165882 11.52366033 0.06824712 14.03270105 0.16015625 16.5546875 C0 19 0 19 -2 22 C-2.2448609 24.15922795 -2.40221324 26.32913382 -2.5 28.5 C-2.77777778 34.66666667 -2.77777778 34.66666667 -5 38 C-5.61560825 24.88982435 -3.25241905 12.62787048 0 0 Z " fill="#4376D8" transform="translate(84,129)"/>
<path d="M0 0 C5.28 0.33 10.56 0.66 16 1 C6.03289996 5.98355002 -6.076225 5.27538929 -17 5 C-13.31912647 2.54608431 -10.55644412 2.77197241 -6.3125 2.875 C-5.2596582 2.88853516 -5.2596582 2.88853516 -4.18554688 2.90234375 C-2.45688475 2.92586296 -0.72839855 2.96173287 1 3 C0.67 2.01 0.34 1.02 0 0 Z " fill="#4379DA" transform="translate(261,482)"/>
<path d="M0 0 C4 4 4 4 5 8 C2.03 8 -0.94 8 -4 8 C-4.33 7.34 -4.66 6.68 -5 6 C-5.33 6.66 -5.66 7.32 -6 8 C-7.32 7.34 -8.64 6.68 -10 6 C-6.7 4.02 -3.4 2.04 0 0 Z " fill="#3678E5" transform="translate(401,38)"/>
<path d="M0 0 C7.23589973 0.60299164 13.99370876 2.1150587 21 4 C21 4.33 21 4.66 21 5 C19.948125 5.12375 18.89625 5.2475 17.8125 5.375 C14.10727842 5.83631038 14.10727842 5.83631038 11.25 7.125 C9 8 9 8 6 7 C6 5.33333333 6 3.66666667 6 2 C4.35 2 2.7 2 1 2 C0.67 1.34 0.34 0.68 0 0 Z " fill="#3C77DD" transform="translate(268,15)"/>
<path d="M0 0 C0.66 0 1.32 0 2 0 C3.41601562 2.68554688 3.41601562 2.68554688 4.83203125 5.37109375 C5.99019799 7.32267987 5.99019799 7.32267987 9 8 C8.9175 8.886875 8.835 9.77375 8.75 10.6875 C8.71837865 14.56902093 9.79706249 17.82765205 11 21.5 C12.56320477 26.27217795 13.46412417 30.01066518 13 35 C12.67 35 12.34 35 12 35 C11.76925781 33.98421875 11.53851563 32.9684375 11.30078125 31.921875 C9.04437849 22.28664759 6.55527152 12.82459377 1.34765625 4.29296875 C0 2 0 2 0 0 Z " fill="#4278D0" transform="translate(317,124)"/>
<path d="M0 0 C0.33 0 0.66 0 1 0 C0.98952637 0.79583496 0.97905273 1.59166992 0.96826172 2.41162109 C0.92633003 6.06604777 0.90055648 9.72042357 0.875 13.375 C0.85824219 14.62667969 0.84148437 15.87835938 0.82421875 17.16796875 C0.79019747 23.66603335 1.01568541 29.6318687 2.66455078 35.93603516 C3.0415582 38.25570088 2.7161092 39.78150248 2 42 C-0.49488697 36.92335789 -1.43151587 32.85746054 -1.328125 27.16796875 C-1.32625183 26.45014725 -1.32437866 25.73232574 -1.32244873 24.99275208 C-1.31577387 23.48934215 -1.30195147 21.98594823 -1.28125 20.48266602 C-1.2498493 18.17643177 -1.24024813 15.87088087 -1.234375 13.56445312 C-1.22521329 12.09894995 -1.21484019 10.63345374 -1.203125 9.16796875 C-1.19887512 8.47841599 -1.19462524 7.78886322 -1.19024658 7.07841492 C-1.11729737 2.23459474 -1.11729737 2.23459474 0 0 Z " fill="#4476CE" transform="translate(152,154)"/>
<path d="M0 0 C0.33 1.32 0.66 2.64 1 4 C-0.65 4 -2.3 4 -4 4 C-4 4.66 -4 5.32 -4 6 C-4.66 6 -5.32 6 -6 6 C-6 6.66 -6 7.32 -6 8 C-7.32 8 -8.64 8 -10 8 C-9.67 9.65 -9.34 11.3 -9 13 C-11.64 13 -14.28 13 -17 13 C-4.8125 0 -4.8125 0 0 0 Z " fill="#3F76DE" transform="translate(149,41)"/>
<path d="M0 0 C0.66644531 0.43570312 1.33289063 0.87140625 2.01953125 1.3203125 C8.5287377 5.52626128 15.14755192 9.38158931 22 13 C18.31638827 14.22787058 17.51592673 13.6048575 14.0625 12.0625 C10.57202798 10.50942421 8.93689355 10 5 10 C5 8.68 5 7.36 5 6 C3.35 5.67 1.7 5.34 0 5 C0 3.33333333 0 1.66666667 0 0 Z " fill="#3974E1" transform="translate(181,394)"/>
<path d="M0 0 C0.33 0.66 0.66 1.32 1 2 C0.67 2.66 0.34 3.32 0 4 C4.62 4 9.24 4 14 4 C14.33 4.66 14.66 5.32 15 6 C5.38299968 6.56081859 -3.61653547 4.84809149 -13 3 C-13 2.67 -13 2.34 -13 2 C-12.154375 2.04125 -11.30875 2.0825 -10.4375 2.125 C-6.57786731 1.98464972 -3.66311987 1.17219836 0 0 Z " fill="#497BD6" transform="translate(219,481)"/>
<path d="M0 0 C0 0.66 0 1.32 0 2 C-2.64738916 3.4606285 -3.89448334 4 -7 4 C-7 5.32 -7 6.64 -7 8 C-7 8.33 -7 8.66 -7 9 C-14.92 9.495 -14.92 9.495 -23 10 C-19.07496957 7.38331304 -14.82593712 5.894932 -10.44921875 4.2109375 C-7.07737104 2.89412124 -3.48419946 0 0 0 Z " fill="#4176DC" transform="translate(289,245)"/>
<path d="M0 0 C0.66 0 1.32 0 2 0 C2 0.99 2 1.98 2 3 C2.99 3 3.98 3 5 3 C5.26425781 3.69738281 5.52851562 4.39476562 5.80078125 5.11328125 C7.55319283 9.33162705 9.7285731 13.31586132 11.85546875 17.35546875 C12.23316406 18.22816406 12.61085938 19.10085938 13 20 C12.67 20.66 12.34 21.32 12 22 C1.3678291 6.54498869 1.3678291 6.54498869 0 0 Z " fill="#4077D5" transform="translate(95,239)"/>
<path d="M0 0 C-15.98969072 11 -15.98969072 11 -20 11 C-18.52710461 6.89693427 -17.82785311 5.91392656 -14 4 C-11.5 3.5 -11.5 3.5 -9 3 C-6.83333333 2.16666667 -6.83333333 2.16666667 -6 0 C-3 -1 -3 -1 0 0 Z " fill="#3E74DB" transform="translate(336,300)"/>
<path d="M0 0 C0 4.15560231 -2.2820452 5.84099329 -5 8.6875 C-5.47695313 9.19861328 -5.95390625 9.70972656 -6.4453125 10.23632812 C-7.62359915 11.49709484 -8.81095253 12.74937686 -10 14 C-11.5 12.625 -11.5 12.625 -13 11 C-13 10.34 -13 9.68 -13 9 C-12.01 9 -11.02 9 -10 9 C-10 8.34 -10 7.68 -10 7 C-9.01 7 -8.02 7 -7 7 C-7 6.34 -7 5.68 -7 5 C-6.01 5 -5.02 5 -4 5 C-4 4.01 -4 3.02 -4 2 C-2.68 1.34 -1.36 0.68 0 0 Z " fill="#3D78E9" transform="translate(367,427)"/>
<path d="M0 0 C0.66 0.33 1.32 0.66 2 1 C-0.65636654 3.94097724 -2.23464224 5.05866056 -6 6 C-6.5775 6.70125 -7.155 7.4025 -7.75 8.125 C-10 10 -10 10 -12.03125 10.0390625 C-14.03383192 9.77816274 -16.01971179 9.39605764 -18 9 C-14.77032995 6.84688663 -11.43948924 5.41730311 -7.875 3.9375 C-3.63291748 2.43773955 -3.63291748 2.43773955 0 0 Z " fill="#3C78DB" transform="translate(285,404)"/>
<path d="M0 0 C0.58265625 0.18175781 1.1653125 0.36351562 1.765625 0.55078125 C8.45691206 2.60235511 15.19880965 4.35228894 22 6 C22 6.33 22 6.66 22 7 C18.37 7 14.74 7 11 7 C11 6.34 11 5.68 11 5 C9.02 5.66 7.04 6.32 5 7 C4.67 5.68 4.34 4.36 4 3 C3.01 3 2.02 3 1 3 C0.67 2.01 0.34 1.02 0 0 Z " fill="#4578CE" transform="translate(203,408)"/>
<path d="M0 0 C0.33 0 0.66 0 1 0 C1.34318454 5.83413722 1.0580255 8.94761005 -2 14 C-1.77752165 17.73093378 -1.77752165 17.73093378 -1 21 C-2.32 20.34 -3.64 19.68 -5 19 C-5.33 20.32 -5.66 21.64 -6 23 C-7.4025848 18.79224559 -5.70691865 15.98917364 -4.125 12.0625 C-3.56319671 10.63746927 -3.00324116 9.21170843 -2.4453125 7.78515625 C-2.06656982 6.83974976 -2.06656982 6.83974976 -1.68017578 5.87524414 C-0.97745126 3.93783313 -0.46608225 2.00626468 0 0 Z " fill="#4077D6" transform="translate(328,347)"/>
<path d="M0 0 C5.53508412 0.72830054 10.68577857 2.35970488 16 4 C18.33010043 4.67875039 20.66450641 5.3399692 23 6 C23 6.66 23 7.32 23 8 C23.99 8.33 24.98 8.66 26 9 C19.6215931 8.48065724 14.39950581 6.8635997 8.5 4.4375 C7.26636719 3.9434668 7.26636719 3.9434668 6.0078125 3.43945312 C4.00181087 2.63471991 2.00040655 1.81854242 0 1 C0 0.67 0 0.34 0 0 Z " fill="#467BD7" transform="translate(175,473)"/>
<path d="M0 0 C0.33 0 0.66 0 1 0 C0.61375277 8.38156489 -1.5255343 16.01265489 -4 24 C-5.12073289 20.63780132 -4.69908257 18.37452607 -4.17578125 14.92578125 C-3.87017532 12.91773819 -3.87017532 12.91773819 -4.6875 10.75 C-4.790625 10.1725 -4.89375 9.595 -5 9 C-3.68870078 7.64499081 -2.35308313 6.31328657 -1 5 C-0.20318682 2.35815459 -0.20318682 2.35815459 0 0 Z " fill="#3E76D8" transform="translate(400,196)"/>
<path d="M0 0 C-0.99 0.33 -1.98 0.66 -3 1 C-3 1.99 -3 2.98 -3 4 C-4.216875 3.95875 -5.43375 3.9175 -6.6875 3.875 C-10.2717847 3.85603553 -12.6863227 4.61930112 -16 6 C-18.140625 5.55859375 -18.140625 5.55859375 -20 5 C-17.42138975 3.96555751 -14.83825365 2.94727716 -12.25 1.9375 C-11.15558594 1.49567383 -11.15558594 1.49567383 -10.0390625 1.04492188 C-8.97558594 0.6340332 -8.97558594 0.6340332 -7.890625 0.21484375 C-7.24125977 -0.04176025 -6.59189453 -0.29836426 -5.92285156 -0.56274414 C-3.63367214 -1.08330284 -2.20743336 -0.72364304 0 0 Z " fill="#3E78D7" transform="translate(197,20)"/>
<path d="M0 0 C0.66 0.66 1.32 1.32 2 2 C-0.64 4.97 -3.28 7.94 -6 11 C-6.33 9.68 -6.66 8.36 -7 7 C-6.34 7 -5.68 7 -5 7 C-5 6.01 -5 5.02 -5 4 C-5.66 3.67 -6.32 3.34 -7 3 C-4.66785852 1.79371992 -2.50357861 0.8345262 0 0 Z " fill="#3A75DD" transform="translate(369,265)"/>
<path d="M0 0 C1.32 0.66 2.64 1.32 4 2 C2.54420484 4.12677894 1.08549775 6.2514542 -0.375 8.375 C-0.7875 8.97828125 -1.2 9.5815625 -1.625 10.203125 C-3.3022395 12.63782751 -4.90467771 14.90467771 -7 17 C-7.33 15.35 -7.66 13.7 -8 12 C-6.68 11.67 -5.36 11.34 -4 11 C-4 10.01 -4 9.02 -4 8 C-3.34 8 -2.68 8 -2 8 C-1.34 5.36 -0.68 2.72 0 0 Z " fill="#3D77D1" transform="translate(169,113)"/>
<path d="M0 0 C0 1.32 0 2.64 0 4 C0.66 4 1.32 4 2 4 C2 4.66 2 5.32 2 6 C-2.72224516 4.46527032 -7.35855331 2.76054874 -12 1 C-12 0.67 -12 0.34 -12 0 C-7.6835078 -0.76173392 -4.25566547 -1.16063604 0 0 Z " fill="#3B78DF" transform="translate(284,89)"/>
<path d="M0 0 C1.98 0 3.96 0 6 0 C5.67 0.66 5.34 1.32 5 2 C6.98 2 8.96 2 11 2 C7.75518249 4.16321167 4.64944241 5.6314591 1 7 C0.01 6.67 -0.98 6.34 -2 6 C-1.01 5.01 -0.02 4.02 1 3 C0.34 3 -0.32 3 -1 3 C-0.67 2.01 -0.34 1.02 0 0 Z " fill="#3976E2" transform="translate(297,313)"/>
<path d="M0 0 C2.95814719 2.61227152 4.71876108 5.66570307 6.6875 9.0625 C7.31011719 10.12597656 7.93273437 11.18945312 8.57421875 12.28515625 C10 15 10 15 10 17 C9.01 17 8.02 17 7 17 C6.54625 16.030625 6.0925 15.06125 5.625 14.0625 C4.34213779 10.92920418 4.34213779 10.92920418 2 10 C2.33 8.68 2.66 7.36 3 6 C2.34 6 1.68 6 1 6 C0.67 4.02 0.34 2.04 0 0 Z " fill="#497AD5" transform="translate(406,46)"/>
<path d="M0 0 C1.68178661 2.52267991 2.90106742 4.81091823 4.125 7.5625 C4.47820312 8.34753906 4.83140625 9.13257813 5.1953125 9.94140625 C6 12 6 12 6 14 C4 14 4 14 1.3125 11.5 C-0.34029431 9.47991806 -0.97897986 8.45112447 -1.1015625 5.8203125 C-0.8125 3.625 -0.8125 3.625 0 0 Z " fill="#3C76D4" transform="translate(155,354)"/>
<path d="M0 0 C1.9375 0.3125 1.9375 0.3125 4 1 C4.33 1.99 4.66 2.98 5 4 C5.99 4 6.98 4 8 4 C8.33 4.99 8.66 5.98 9 7 C9.99 7.66 10.98 8.32 12 9 C11.01 10.485 11.01 10.485 10 12 C6.08552441 8.27856704 2.50346649 4.85967024 0 0 Z " fill="#3F75D7" transform="translate(112,267)"/>
<path d="M0 0 C0.66 0 1.32 0 2 0 C2 0.66 2 1.32 2 2 C4.64 1.34 7.28 0.68 10 0 C7.20803989 3.28465896 3.76803183 5.01321958 0 7 C-0.66 7 -1.32 7 -2 7 C-1.34 4.69 -0.68 2.38 0 0 Z " fill="#4780E0" transform="translate(410,116)"/>
<path d="M0 0 C2.0245738 1.93254772 3.42105792 3.63158688 5 6 C4.875 8.0625 4.875 8.0625 4 10 C1.9375 11.25 1.9375 11.25 0 12 C-0.33 11.01 -0.66 10.02 -1 9 C-0.34 8.67 0.32 8.34 1 8 C1.65213292 5.97536745 1.65213292 5.97536745 2 4 C1.01 4 0.02 4 -1 4 C-0.67 2.68 -0.34 1.36 0 0 Z " fill="#467BDE" transform="translate(435,96)"/>
<path d="M0 0 C0.33 0 0.66 0 1 0 C1.31263383 6.87794433 1.31263383 6.87794433 -1 10 C-3.125 10.75 -3.125 10.75 -5 11 C-3.77782954 6.95743617 -2.37245704 3.50711041 0 0 Z " fill="#3C76DD" transform="translate(100,92)"/>
<path d="M0 0 C3.375 0.25 3.375 0.25 7 1 C8.4375 3.0625 8.4375 3.0625 9 5 C9.66 5 10.32 5 11 5 C11.33 5.99 11.66 6.98 12 8 C7.44328408 6.48109469 3.68276708 4.04597738 0 1 C0 0.67 0 0.34 0 0 Z " fill="#4079E0" transform="translate(145,456)"/>
<path d="M0 0 C0.928125 0.165 1.85625 0.33 2.8125 0.5 C5.95621353 1.07748388 5.95621353 1.07748388 9 1 C8.95875 1.763125 8.9175 2.52625 8.875 3.3125 C8.77919176 6.22718416 8.77919176 6.22718416 11 9 C8.03469503 7.64199529 5.70868729 6.07571737 3.25 3.9375 C2.63640625 3.41027344 2.0228125 2.88304687 1.390625 2.33984375 C0.93171875 1.89769531 0.4728125 1.45554687 0 1 C0 0.67 0 0.34 0 0 Z " fill="#447ADC" transform="translate(125,440)"/>
<path d="M0 0 C2.63978826 3.18595135 5.10498388 6.30970546 7 10 C6.67 10.66 6.34 11.32 6 12 C5.67 11.01 5.34 10.02 5 9 C3.02 9 1.04 9 -1 9 C-1 8.34 -1 7.68 -1 7 C-0.34 7 0.32 7 1 7 C0.67 4.69 0.34 2.38 0 0 Z " fill="#457EDE" transform="translate(427,82)"/>
<path d="M0 0 C0 3.53986194 -0.58152803 4.49515403 -3 7 C-4.32 7 -5.64 7 -7 7 C-7.33 7.99 -7.66 8.98 -8 10 C-9.32 9.67 -10.64 9.34 -12 9 C-11.21753906 8.43410156 -10.43507813 7.86820313 -9.62890625 7.28515625 C-8.61699219 6.55167969 -7.60507812 5.81820312 -6.5625 5.0625 C-5.55316406 4.33160156 -4.54382813 3.60070312 -3.50390625 2.84765625 C-1.17707392 1.22678115 -1.17707392 1.22678115 0 0 Z " fill="#4376D3" transform="translate(301,235)"/>
<path d="M0 0 C0 3.54404336 -0.60989485 4.10267905 -2.875 6.6875 C-3.40867187 7.31011719 -3.94234375 7.93273437 -4.4921875 8.57421875 C-6 10 -6 10 -8 10 C-8.28875 10.639375 -8.5775 11.27875 -8.875 11.9375 C-10 14 -10 14 -12 15 C-10.58397787 11.85093585 -8.86264918 9.50476328 -6.5625 6.9375 C-5.96566406 6.26589844 -5.36882812 5.59429687 -4.75390625 4.90234375 C-3.20703058 3.2245521 -1.62828434 1.59840757 0 0 Z " fill="#4379D3" transform="translate(123,62)"/>
<path d="M0 0 C0.66 0 1.32 0 2 0 C3.35278115 1.98689731 4.68568305 3.98745218 6 6 C6.66 6.33 7.32 6.66 8 7 C8.625 10.0625 8.625 10.0625 9 13 C4.66965806 9.15080717 2.3439244 5.27710354 0 0 Z M8 6 C10 7 10 7 10 7 Z " fill="#447CD8" transform="translate(101,409)"/>
<path d="M0 0 C0 3 0 3 -2 6 C-5.625 7.1875 -5.625 7.1875 -9 8 C-9 8.66 -9 9.32 -9 10 C-10.32 9.67 -11.64 9.34 -13 9 C-11.71802734 8.15115234 -11.71802734 8.15115234 -10.41015625 7.28515625 C-9.2942305 6.54433159 -8.17834728 5.80344286 -7.0625 5.0625 C-6.49853516 4.68931641 -5.93457031 4.31613281 -5.35351562 3.93164062 C-2.53966389 2.14034283 -2.53966389 2.14034283 0 0 Z " fill="#4374D3" transform="translate(300,394)"/>
<path d="M0 0 C0.66 0.66 1.32 1.32 2 2 C-0.22355226 4.5570851 -1.75018193 5.24170912 -5 6 C-5.33 6.66 -5.66 7.32 -6 8 C-7.32 7.34 -8.64 6.68 -10 6 C-6.7 4.02 -3.4 2.04 0 0 Z " fill="#4978D9" transform="translate(401,38)"/>
<path d="M0 0 C4.95 2.64 9.9 5.28 15 8 C12 9 12 9 9.58984375 8.14453125 C8.71457031 7.70496094 7.83929688 7.26539063 6.9375 6.8125 C6.05964844 6.38582031 5.18179688 5.95914062 4.27734375 5.51953125 C2 4 2 4 0 0 Z " fill="#4275CD" transform="translate(188,399)"/>
<path d="M0 0 C0.33 0.66 0.66 1.32 1 2 C0.67 2.66 0.34 3.32 0 4 C-1.41623216 4.05447047 -2.83308191 4.09300508 -4.25 4.125 C-5.03890625 4.14820313 -5.8278125 4.17140625 -6.640625 4.1953125 C-9.20731941 3.9828378 -10.7916067 3.28654105 -13 2 C-12.154375 2.04125 -11.30875 2.0825 -10.4375 2.125 C-6.57786731 1.98464972 -3.66311987 1.17219836 0 0 Z " fill="#3B76DD" transform="translate(219,481)"/>
<path d="M0 0 C0.99 0.33 1.98 0.66 3 1 C2.02501855 2.5027237 1.04490611 4.00211963 0.0625 5.5 C-0.48277344 6.3353125 -1.02804687 7.170625 -1.58984375 8.03125 C-2.05519531 8.6809375 -2.52054687 9.330625 -3 10 C-3.33 10 -3.66 10 -4 10 C-3.38461538 3.47692308 -3.38461538 3.47692308 -1.4375 1.0625 C-0.7259375 0.5365625 -0.7259375 0.5365625 0 0 Z " fill="#4078DB" transform="translate(377,411)"/>
<path d="M0 0 C0.99 0.33 1.98 0.66 3 1 C3 2.32 3 3.64 3 5 C3.99 5 4.98 5 6 5 C6 7.31 6 9.62 6 12 C3.32098068 9.68118495 2.33795597 7.68185532 1.3125 4.3125 C1.06113281 3.50425781 0.80976562 2.69601562 0.55078125 1.86328125 C0.36902344 1.24839844 0.18726562 0.63351562 0 0 Z " fill="#4779D4" transform="translate(94,395)"/>
<path d="M0 0 C4.11050664 1.45076705 7.53714127 3.34245725 11 6 C11 6.99 11 7.98 11 9 C8.03469503 7.64199529 5.70868729 6.07571737 3.25 3.9375 C2.63640625 3.41027344 2.0228125 2.88304687 1.390625 2.33984375 C0.93171875 1.89769531 0.4728125 1.45554687 0 1 C0 0.67 0 0.34 0 0 Z " fill="#437BD5" transform="translate(125,282)"/>
<path d="M0 0 C1 2 1 2 0.375 4.375 C-1.25561397 7.4879903 -3.15997255 8.98208576 -6 11 C-6.66 10.67 -7.32 10.34 -8 10 C-5.36 6.7 -2.72 3.4 0 0 Z " fill="#3F75D4" transform="translate(315,219)"/>
<path d="M0 0 C0.6875 1.6875 0.6875 1.6875 1 4 C-0.63681917 7.27363833 -2.7567046 10.11576306 -5 13 C-5.66 12.67 -6.32 12.34 -7 12 C-6.57847656 11.30132812 -6.15695312 10.60265625 -5.72265625 9.8828125 C-5.17480469 8.97273437 -4.62695312 8.06265625 -4.0625 7.125 C-3.51722656 6.22007812 -2.97195313 5.31515625 -2.41015625 4.3828125 C-1.56101983 2.94798364 -0.74562276 1.49124552 0 0 Z " fill="#4676CF" transform="translate(323,205)"/>
<path d="M0 0 C2.475 0.495 2.475 0.495 5 1 C5 1.66 5 2.32 5 3 C5.66 3 6.32 3 7 3 C6.67 4.65 6.34 6.3 6 8 C1.125 3.375 1.125 3.375 0 0 Z " fill="#3776DE" transform="translate(311,116)"/>
<path d="M0 0 C1.43088528 2.86177057 0.59991697 4.93375773 0 8 C-0.61875 8.144375 -1.2375 8.28875 -1.875 8.4375 C-4.03258322 8.93152225 -4.03258322 8.93152225 -6 10 C-4.6302836 6.00499382 -2.74277578 3.19990508 0 0 Z " fill="#3F76D5" transform="translate(110,77)"/>
<path d="M0 0 C1.32 0.33 2.64 0.66 4 1 C0.04 4.465 0.04 4.465 -4 8 C-4.33 6.68 -4.66 5.36 -5 4 C-4.0409375 3.8453125 -4.0409375 3.8453125 -3.0625 3.6875 C-2.381875 3.460625 -1.70125 3.23375 -1 3 C-0.67 2.01 -0.34 1.02 0 0 Z " fill="#4475D9" transform="translate(352,441)"/>
<path d="M0 0 C2.5 1 2.5 1 5 3 C5.46837899 5.79374292 5.23424505 8.14221036 5 11 C2.03947516 7.63576723 1.07710178 4.30840713 0 0 Z " fill="#4077D6" transform="translate(89,384)"/>
<path d="M0 0 C0.66 1.32 1.32 2.64 2 4 C0.35 6.31 -1.3 8.62 -3 11 C-3.33 10.34 -3.66 9.68 -4 9 C-3.67 8.01 -3.34 7.02 -3 6 C-2.34 6 -1.68 6 -1 6 C-1.309375 5.071875 -1.309375 5.071875 -1.625 4.125 C-1.810625 3.073125 -1.810625 3.073125 -2 2 C-1.34 1.34 -0.68 0.68 0 0 Z " fill="#3C78D6" transform="translate(376,253)"/>
<path d="M0 0 C1.17571451 3.67410785 1.07366746 7.16929183 1 11 C-0.32 11.33 -1.64 11.66 -3 12 C-2.68950274 10.56206608 -2.3765224 9.1246682 -2.0625 7.6875 C-1.88847656 6.88699219 -1.71445312 6.08648437 -1.53515625 5.26171875 C-1 3 -1 3 0 0 Z " fill="#467AD6" transform="translate(327,193)"/>
<path d="M0 0 C0.33 0 0.66 0 1 0 C1.38281159 5.23175837 0.21854707 8.37802694 -2 13 C-2.66 13 -3.32 13 -4 13 C-3.52140759 11.39566191 -3.04210442 9.79153584 -2.5625 8.1875 C-2.29566406 7.29417969 -2.02882813 6.40085937 -1.75390625 5.48046875 C-1.19612127 3.64526945 -0.60655425 1.81966274 0 0 Z " fill="#4475D7" transform="translate(90,111)"/>
<path d="M0 0 C-1 2 -2 4 -3 6 C-4.32 4.35 -5.64 2.7 -7 1 C-3.375 -1.125 -3.375 -1.125 0 0 Z " fill="#3B78E8" transform="translate(127,433)"/>
<path d="M0 0 C2.31 0.66 4.62 1.32 7 2 C7 2.66 7 3.32 7 4 C7.66 4.33 8.32 4.66 9 5 C7.02 5.99 7.02 5.99 5 7 C4.67 5.68 4.34 4.36 4 3 C3.01 3 2.02 3 1 3 C0.67 2.01 0.34 1.02 0 0 Z " fill="#3D76DA" transform="translate(203,408)"/>
<path d="M0 0 C0 3 0 3 -1.3125 4.38671875 C-2.875 5.59114583 -4.4375 6.79557292 -6 8 C-6.33 7.01 -6.66 6.02 -7 5 C-6.01 5 -5.02 5 -4 5 C-4 4.01 -4 3.02 -4 2 C-2.68 1.34 -1.36 0.68 0 0 Z " fill="#4574D4" transform="translate(367,427)"/>
<path d="M0 0 C0.33 0.66 0.66 1.32 1 2 C-0.30406884 4.01920337 -1.63823419 6.01924973 -3 8 C-3.33 8 -3.66 8 -4 8 C-4 6.02 -4 4.04 -4 2 C-2.68 1.34 -1.36 0.68 0 0 Z " fill="#4275DD" transform="translate(384,402)"/>
<path d="M0 0 C0 0.33 0 0.66 0 1 C-9.41002278 0.03644647 -9.41002278 0.03644647 -14 -1 C-14 -1.33 -14 -1.66 -14 -2 C-8.87160006 -3.81975482 -4.82315618 -1.8599099 0 0 Z " fill="#4278D0" transform="translate(215,326)"/>
<path d="M0 0 C3.63 1.98 7.26 3.96 11 6 C8 7 8 7 4.375 5.8125 C3.26125 5.214375 2.1475 4.61625 1 4 C0.67 2.68 0.34 1.36 0 0 Z " fill="#4373CD" transform="translate(186,240)"/>
<path d="M0 0 C0.33 0.99 0.66 1.98 1 3 C-2.22791555 5.1519437 -3.28400809 5.20086443 -7 5 C-4.87219421 2.65941363 -2.88437779 1.29299694 0 0 Z " fill="#487FDA" transform="translate(384,48)"/>
<path d="M0 0 C1.14926266 0.95421808 2.29430541 1.91352045 3.4375 2.875 C4.07558594 3.40867188 4.71367187 3.94234375 5.37109375 4.4921875 C7 6 7 6 8 8 C3.25 6.125 3.25 6.125 1 5 C0.375 2.4375 0.375 2.4375 0 0 Z " fill="#3C70CD" transform="translate(173,228)"/>
<path d="M0 0 C6.52307692 -0.36923077 6.52307692 -0.36923077 8.9375 1.5 C9.288125 1.995 9.63875 2.49 10 3 C2.25 2.25 2.25 2.25 0 0 Z " fill="#467CCF" transform="translate(191,321)"/>
<path d="M0 0 C1.32 0.66 2.64 1.32 4 2 C2.625 4 2.625 4 1 6 C0.34 6 -0.32 6 -1 6 C-0.67 4.02 -0.34 2.04 0 0 Z " fill="#3A75DF" transform="translate(169,113)"/>
<path d="M0 0 C1.32 0.33 2.64 0.66 4 1 C1.69 2.65 -0.62 4.3 -3 6 C-3 4.68 -3 3.36 -3 2 C-2.01 1.34 -1.02 0.68 0 0 Z " fill="#4176D3" transform="translate(186,99)"/>
</svg>
