<?xml version="1.0" encoding="UTF-8"?>
<svg version="1.1" xmlns="http://www.w3.org/2000/svg" width="366" height="366">
<path d="M0 0 C2.63700725 2.33940215 5.24726869 4.69511076 7.80859375 7.1171875 C9.93270427 8.94218085 11.35429358 10.11651242 14 11 C16.47903251 10.1374246 16.47903251 10.1374246 18.95703125 8.4921875 C19.90513672 7.91726562 20.85324219 7.34234375 21.83007812 6.75 C22.81427734 6.13125 23.79847656 5.5125 24.8125 4.875 C26.75639284 3.68470379 28.70040071 2.49459543 30.64453125 1.3046875 C31.56443848 0.73588867 32.4843457 0.16708984 33.43212891 -0.41894531 C42.49660284 -6 42.49660284 -6 45 -6 C45.57947388 -4.99138916 45.57947388 -4.99138916 46.1706543 -3.96240234 C47.66952427 -1.35503691 49.1696197 1.25161923 50.67041016 3.85787964 C51.34714499 5.03365768 52.02341646 6.20970255 52.69921875 7.38601685 C56.38425996 13.79943133 60.09512139 20.1915029 63.92578125 26.51953125 C64.5288208 27.51968262 65.13186035 28.51983398 65.75317383 29.55029297 C66.90197679 31.44906919 68.05915236 33.34280937 69.2253418 35.23095703 C69.7387915 36.08157715 70.25224121 36.93219727 70.78125 37.80859375 C71.4628418 38.91932251 71.4628418 38.91932251 72.15820312 40.05249023 C73 42 73 42 72 45 C69.54736328 46.68579102 69.54736328 46.68579102 66.3203125 48.50390625 C65.7517453 48.82785873 65.1831781 49.15181122 64.59738159 49.48558044 C62.77800243 50.51987906 60.95182875 51.54142721 59.125 52.5625 C57.30696289 53.58986657 55.49037525 54.61975639 53.67404175 55.65013123 C52.02215661 56.58539851 50.36686986 57.51465018 48.71142578 58.44360352 C46.76636513 59.56009565 44.86606003 60.75595998 43 62 C43.13631836 62.91942383 43.13631836 62.91942383 43.27539062 63.85742188 C48.51988508 99.81582747 44.94836767 132.82099446 23 163 C21.10620413 165.43330748 19.16262734 167.81985264 17.1875 170.1875 C16.70692139 170.7652417 16.22634277 171.3429834 15.73120117 171.93823242 C14.53461696 173.3339996 13.27227784 174.67286441 12 176 C11.34 176 10.68 176 10 176 C10 176.66 10 177.32 10 178 C-3.54280628 191.07295382 -21.18492654 200.84812953 -39.0625 206.3125 C-39.85285645 206.55508545 -40.64321289 206.7976709 -41.45751953 207.04760742 C-63.44013649 213.39988764 -88.02293097 213.21476794 -110 207 C-110.72687012 206.79632813 -111.45374023 206.59265625 -112.20263672 206.3828125 C-127.89167946 201.80433932 -142.82715925 193.94346445 -155 183 C-156.47726563 181.71802734 -156.47726563 181.71802734 -157.984375 180.41015625 C-180.10427443 160.97114309 -194.50951471 133.47914507 -197 104 C-198.63934981 72.32415443 -191.07251888 42.40226227 -170 18 C-169.29488281 17.16339844 -168.58976562 16.32679687 -167.86328125 15.46484375 C-163.82815977 10.77772778 -163.82815977 10.77772778 -162 9 C-161.34 9 -160.68 9 -160 9 C-159.67 8.01 -159.34 7.02 -159 6 C-157.6081543 4.66894531 -157.6081543 4.66894531 -155.82421875 3.328125 C-154.83881104 2.58393311 -154.83881104 2.58393311 -153.83349609 1.82470703 C-153.12531738 1.30505371 -152.41713867 0.78540039 -151.6875 0.25 C-150.96127441 -0.28641113 -150.23504883 -0.82282227 -149.48681641 -1.37548828 C-106.91369075 -32.41702518 -41.50450468 -35.52620682 0 0 Z M-118 43 C-118.68320313 43.50917969 -119.36640625 44.01835938 -120.0703125 44.54296875 C-132.10647358 54.10109666 -140.15289116 69.80604022 -142 85 C-143.32889454 104.65021104 -138.5532879 121.11255267 -125.8125 136.3125 C-112.57188525 150.14461987 -94.62732869 157.8404574 -75.5 158.375 C-57.66999799 157.87671319 -42.37273061 151.4297551 -29.25 139.5 C-28.5075 138.675 -27.765 137.85 -27 137 C-26.45988281 136.42894531 -25.91976562 135.85789062 -25.36328125 135.26953125 C-13.56186623 122.44413228 -8.54386841 107.25563753 -8.7265625 89.91796875 C-9.98983437 71.81708755 -18.36812825 55.28489285 -32.0625 43.375 C-57.48862295 23.42473617 -92.62965158 22.64052111 -118 43 Z " fill="#01BC7C" transform="translate(252,31)"/>
<path d="M0 0 C17.82 0 35.64 0 54 0 C56 6 56 6 56.82421875 8.7890625 C62.16713373 26.34090084 72.4249375 38.68034677 88 48 C104.8649705 56.79340874 122.83824238 58.15345068 141 53 C151.83140511 49.46976426 161.35724809 43.51620927 169 35 C169.69996094 34.25363281 169.69996094 34.25363281 170.4140625 33.4921875 C177.73635218 25.41889375 181.63042927 17.08043502 184.35180664 6.62548828 C184.85029212 4.7361536 185.41944997 2.86575319 186 1 C188.52744088 -0.26372044 190.26380308 -0.12022795 193.09228516 -0.11352539 C194.68370834 -0.11341209 194.68370834 -0.11341209 196.30728149 -0.11329651 C197.45626923 -0.10813522 198.60525696 -0.10297394 199.7890625 -0.09765625 C200.96262299 -0.0962413 202.13618347 -0.09482635 203.3453064 -0.09336853 C207.10522985 -0.08775689 210.86509445 -0.07520238 214.625 -0.0625 C217.16926998 -0.0574865 219.71354088 -0.05292333 222.2578125 -0.04882812 C228.50522853 -0.03778368 234.75261006 -0.02103418 241 0 C241.01811462 1.41059606 241.03089279 2.82126113 241.04150391 4.23193359 C241.04920807 5.01748627 241.05691223 5.80303894 241.06484985 6.61239624 C240.96226541 10.38929012 240.22560657 13.95413288 239.375 17.625 C239.19606201 18.40278809 239.01712402 19.18057617 238.83276367 19.98193359 C234.38235385 38.38046461 225.46167801 54.84450168 213 69 C212.01741618 70.22643674 211.03756958 71.45508068 210.0625 72.6875 C209.381875 73.450625 208.70125 74.21375 208 75 C207.34 75 206.68 75 206 75 C206 75.66 206 76.32 206 77 C189.30871734 93.11219735 168.2385672 102.56813935 146 108 C144.90429688 108.26941406 143.80859375 108.53882813 142.6796875 108.81640625 C111.42704376 114.90513657 77.39300742 107.39016455 51 90 C47.12835006 87.19752833 43.5459378 84.20040712 40 81 C39.15179688 80.28199219 38.30359375 79.56398438 37.4296875 78.82421875 C17.47747518 61.64823169 4.5308488 37.06272451 0.125 11.25 C-0.07355591 10.08766846 -0.07355591 10.08766846 -0.27612305 8.90185547 C-0.80179535 5.51301881 -1.09964282 3.29892845 0 0 Z " fill="#01BC7C" transform="translate(56,250)"/>
<path d="M0 0 C-10.02889291 5.15619759 -20.06522629 8.40376934 -31 11 C-32.03125 11.24878906 -33.0625 11.49757813 -34.125 11.75390625 C-49.53115777 14.74722223 -67.67518601 14.47445175 -83 11 C-83 10.67 -83 10.34 -83 10 C-81.81035645 10.00523682 -80.62071289 10.01047363 -79.39501953 10.01586914 C-74.940763 10.03410074 -70.4865097 10.0454978 -66.03222656 10.05493164 C-64.11197351 10.05993062 -62.1917242 10.066732 -60.27148438 10.07543945 C-57.49608428 10.08770084 -54.72073493 10.09327281 -51.9453125 10.09765625 C-51.1001004 10.10281754 -50.25488831 10.10797882 -49.38406372 10.11329651 C-43.57058477 10.11383193 -37.74893334 9.9296026 -32 9 C-31.67 8.67 -31.34 8.34 -31 8 C-28.66702567 7.95907063 -26.33294775 7.95758277 -24 8 C-24 7.34 -24 6.68 -24 6 C-23.113125 5.896875 -22.22625 5.79375 -21.3125 5.6875 C-18.05573486 5.21255403 -18.05573486 5.21255403 -15.8125 3.625 C-11.72563851 1.26370225 -4.48923995 -2.24461998 0 0 Z " fill="#1BAB7C" transform="translate(233,347)"/>
<path d="M0 0 C3.226345 3.80247803 5.77535219 7.55070439 8 12 C6.88424427 15.34726719 6.48655378 15.62079748 3.5625 17.25 C2.386875 17.8275 1.21125 18.405 0 19 C-0.66 18.67 -1.32 18.34 -2 18 C-1.67 17.01 -1.34 16.02 -1 15 C-1.66 15 -2.32 15 -3 15 C-2 13 -2 13 1 11 C1 9.68 1 8.36 1 7 C1 6.34 1 5.68 1 5 C0.34 5 -0.32 5 -1 5 C-0.67 3.35 -0.34 1.7 0 0 Z " fill="#09B67B" transform="translate(317,61)"/>
<path d="M0 0 C0.33 0 0.66 0 1 0 C3.82622721 17.56298336 3.0057457 33.5380488 0 51 C-1.4606285 48.35261084 -2 47.10551666 -2 44 C-1.34 44 -0.68 44 0 44 C0 29.48 0 14.96 0 0 Z " fill="#18A97C" transform="translate(295,101)"/>
<path d="M0 0 C2.64 0 5.28 0 8 0 C6.88243734 3.86848614 5.97126708 6.28922757 3 9 C3.2165625 9.64066406 3.433125 10.28132813 3.65625 10.94140625 C5.34059996 16.1738082 6.35826786 20.5065595 6 26 C1.16287339 18.74431009 0.56043587 8.56114111 0 0 Z " fill="#08B97D" transform="translate(55,251)"/>
<path d="M0 0 C1.32 0 2.64 0 4 0 C2.64763423 2.93879484 1.10057341 5.29232911 -1 7.75 C-1.515625 8.36359375 -2.03125 8.9771875 -2.5625 9.609375 C-4 11 -4 11 -6 11 C-6 11.66 -6 12.32 -6 13 C-7.61457079 14.43581474 -9.29219075 15.80144783 -11 17.125 C-11.928125 17.84945313 -12.85625 18.57390625 -13.8125 19.3203125 C-14.534375 19.87460937 -15.25625 20.42890625 -16 21 C-16.33 19.68 -16.66 18.36 -17 17 C-15.35 16.67 -13.7 16.34 -12 16 C-11.814375 15.071875 -11.814375 15.071875 -11.625 14.125 C-11 12 -11 12 -9 10 C-7.68 10 -6.36 10 -5 10 C-5 9.01 -5 8.02 -5 7 C-3.04783565 5.04783565 -1.46800047 4.15173355 1 3 C0.67 2.01 0.34 1.02 0 0 Z " fill="#19AC7A" transform="translate(268,314)"/>
<path d="M0 0 C0.33 0.66 0.66 1.32 1 2 C-0.88935711 6.09360707 -2.96616255 8.03479714 -7 10 C-7.66 10 -8.32 10 -9 10 C-9 10.66 -9 11.32 -9 12 C-12.68530541 15.57013962 -16.97682477 17.93145179 -22 19 C-24.24609375 18.57421875 -24.24609375 18.57421875 -26 18 C-25.26136719 17.6596875 -24.52273437 17.319375 -23.76171875 16.96875 C-15.07165038 12.81695113 -5.54339118 8.17877388 0 0 Z " fill="#1EAA7B" transform="translate(226,166)"/>
<path d="M0 0 C5.08201656 0.59610135 9.12467934 2.93169492 13.5625 5.3125 C14.31724609 5.70373047 15.07199219 6.09496094 15.84960938 6.49804688 C19.80044261 8.59703581 23.03458816 10.56263932 26 14 C21.99204536 12.44853369 18.08174303 10.70769137 14.16015625 8.953125 C11.79544579 7.90974462 9.41034301 6.93303601 7 6 C7 5.34 7 4.68 7 4 C4.69 3.34 2.38 2.68 0 2 C0 1.34 0 0.68 0 0 Z " fill="#1EA97B" transform="translate(222,15)"/>
<path d="M0 0 C0.33 0 0.66 0 1 0 C1.33 2.31 1.66 4.62 2 7 C1.01 7.33 0.02 7.66 -1 8 C-1.33 11.63 -1.66 15.26 -2 19 C-3.32 19.33 -4.64 19.66 -6 20 C-6 20.66 -6 21.32 -6 22 C-6.99 22.33 -7.98 22.66 -9 23 C-7.86906338 19.98416902 -6.56673307 17.15382913 -5.0625 14.3125 C-2.72278605 9.72946482 -1.33975409 4.95303027 0 0 Z " fill="#1BAC7D" transform="translate(241,137)"/>
<path d="M0 0 C0.44988281 0.35191406 0.89976563 0.70382812 1.36328125 1.06640625 C6.29210908 4.84945446 11.39581921 8.21691327 16.6796875 11.484375 C19 13 19 13 21 15 C19.35 15 17.7 15 16 15 C16 14.34 16 13.68 16 13 C15.278125 12.71125 14.55625 12.4225 13.8125 12.125 C12.884375 11.75375 11.95625 11.3825 11 11 C10.0925 10.690625 9.185 10.38125 8.25 10.0625 C7.5075 9.711875 6.765 9.36125 6 9 C5.67 8.01 5.34 7.02 5 6 C3.68 6 2.36 6 1 6 C0.67 4.02 0.34 2.04 0 0 Z " fill="#1DAA79" transform="translate(127,286)"/>
<path d="M0 0 C3.92491136 4.52874388 7.37459686 9.60598991 10 15 C9.67 15.66 9.34 16.32 9 17 C8.01 16.34 7.02 15.68 6 15 C6 13.68 6 12.36 6 11 C5.01 10.67 4.02 10.34 3 10 C3 9.34 3 8.68 3 8 C2.34 8 1.68 8 1 8 C-0.35439668 5.29120665 -0.06501451 2.99066732 0 0 Z " fill="#1BA978" transform="translate(307,44)"/>
<path d="M0 0 C0.66 0 1.32 0 2 0 C2.05425226 2.39614126 2.09379027 4.79103853 2.125 7.1875 C2.15013672 8.19780273 2.15013672 8.19780273 2.17578125 9.22851562 C2.21538674 13.28807807 1.80020002 16.34998815 0 20 C-0.33 20 -0.66 20 -1 20 C-0.67 13.4 -0.34 6.8 0 0 Z " fill="#1DAF7F" transform="translate(243,117)"/>
<path d="M0 0 C2.125 0.375 2.125 0.375 4 1 C2.06613122 2.48413185 0.12821927 3.96237428 -1.8125 5.4375 C-2.35970703 5.85837891 -2.90691406 6.27925781 -3.47070312 6.71289062 C-5.97679457 8.61144475 -7.99420019 9.99806673 -11 11 C-10.34 9.35 -9.68 7.7 -9 6 C-8.34 6 -7.68 6 -7 6 C-6.67 5.34 -6.34 4.68 -6 4 C-4.68 4 -3.36 4 -2 4 C-2 3.34 -2 2.68 -2 2 C-1.34 1.34 -0.68 0.68 0 0 Z " fill="#1AAB7C" transform="translate(252,213)"/>
<path d="M0 0 C-0.625 1.9375 -0.625 1.9375 -2 4 C-4 4.33333333 -6 4.66666667 -8 5 C-8.69937532 6.31647119 -9.36729133 7.65022151 -10 9 C-12.625 9.75 -12.625 9.75 -15 10 C-11.33829025 5.99500496 -5.76187936 0 0 0 Z " fill="#1AAE7C" transform="translate(116,22)"/>
<path d="M0 0 C0.33 0.99 0.66 1.98 1 3 C-0.65 3.33 -2.3 3.66 -4 4 C-4 5.32 -4 6.64 -4 8 C-4.721875 7.979375 -5.44375 7.95875 -6.1875 7.9375 C-8.91925138 7.99820559 -11.34256091 8.39258535 -14 9 C-9.7045025 5.25876024 -5.00099548 2.65848126 0 0 Z " fill="#17AE77" transform="translate(290,28)"/>
<path d="M0 0 C3.51571411 6.64928537 5.4907753 13.47477866 5 21 C2.84692286 17.77038428 2.22765131 15.38872346 1.375 11.625 C0.98441406 9.94277344 0.98441406 9.94277344 0.5859375 8.2265625 C0.06986608 5.3847292 -0.11846848 2.87555316 0 0 Z " fill="#1FAB7C" transform="translate(56,256)"/>
<path d="M0 0 C5.28 0.99 10.56 1.98 16 3 C16 3.33 16 3.66 16 4 C14.06263299 4.16820551 12.12510094 4.33451095 10.1875 4.5 C8.56908203 4.63921875 8.56908203 4.63921875 6.91796875 4.78125 C4 5 4 5 1 5 C0.67 3.35 0.34 1.7 0 0 Z " fill="#17AE7D" transform="translate(154,185)"/>
<path d="M0 0 C0 0.66 0 1.32 0 2 C-4.35081734 4.03944563 -8.24109792 4.68794085 -13 5 C-13.66 4.34 -14.32 3.68 -15 3 C-13.25183142 2.49363393 -11.50137737 1.99515381 -9.75 1.5 C-8.77546875 1.2215625 -7.8009375 0.943125 -6.796875 0.65625 C-4 0 -4 0 0 0 Z " fill="#1CB081" transform="translate(150,9)"/>
<path d="M0 0 C0 2.83967231 -0.40267181 5.23735711 -1 8 C-1.66 8 -2.32 8 -3 8 C-3.66 9.65 -4.32 11.3 -5 13 C-5.66 13 -6.32 13 -7 13 C-5.58832253 7.73829306 -3.25149768 4.27828642 0 0 Z " fill="#1EAE7C" transform="translate(76,57)"/>
<path d="M0 0 C-0.66 0 -1.32 0 -2 0 C-2.33 1.32 -2.66 2.64 -3 4 C-3.99 3.67 -4.98 3.34 -6 3 C-7.89470816 2.9314505 -9.7916834 2.91519628 -11.6875 2.9375 C-12.68136719 2.94652344 -13.67523438 2.95554688 -14.69921875 2.96484375 C-15.45847656 2.97644531 -16.21773437 2.98804688 -17 3 C-17 2.67 -17 2.34 -17 2 C-14.73139163 1.4695592 -12.46001511 0.95094566 -10.1875 0.4375 C-8.29064453 0.00244141 -8.29064453 0.00244141 -6.35546875 -0.44140625 C-3 -1 -3 -1 0 0 Z " fill="#1BAE7D" transform="translate(200,186)"/>
<path d="M0 0 C1.13529002 3.34491489 0.86633118 5.26065531 -0.3125 8.5625 C-0.57675781 9.32691406 -0.84101563 10.09132813 -1.11328125 10.87890625 C-2 13 -2 13 -4 16 C-4.66 16 -5.32 16 -6 16 C-4.27933894 10.55123997 -2.15294651 5.28830549 0 0 Z " fill="#20AA7C" transform="translate(240,259)"/>
<path d="M0 0 C1.98 0 3.96 0 6 0 C6 1.65 6 3.3 6 5 C4.68 4.34 3.36 3.68 2 3 C1.67 4.65 1.34 6.3 1 8 C0.34 8 -0.32 8 -1 8 C-0.67 5.36 -0.34 2.72 0 0 Z " fill="#15B37D" transform="translate(242,251)"/>
<path d="M0 0 C0.66 0 1.32 0 2 0 C4.28571429 8.42857143 4.28571429 8.42857143 4 13 C4.66 13 5.32 13 6 13 C6 13.99 6 14.98 6 16 C5.34 16 4.68 16 4 16 C3.32815382 13.89748139 2.66269032 11.79292237 2 9.6875 C1.443125 7.92986328 1.443125 7.92986328 0.875 6.13671875 C0 3 0 3 0 0 Z " fill="#25A97C" transform="translate(57,146)"/>
<path d="M0 0 C2.475 0.99 2.475 0.99 5 2 C5.33 1.34 5.66 0.68 6 0 C7.32 2.64 8.64 5.28 10 8 C5.94323381 5.9716169 3.3605686 3.9786858 0 1 C0 0.67 0 0.34 0 0 Z " fill="#1AAC7C" transform="translate(95,329)"/>
<path d="M0 0 C7 8.44827586 7 8.44827586 7 12 C6.34 12 5.68 12 5 12 C5 11.01 5 10.02 5 9 C4.34 9 3.68 9 3 9 C0.78252188 6.69723426 0.03239994 5.47519908 -0.1875 2.25 C-0.125625 1.5075 -0.06375 0.765 0 0 Z " fill="#1AA679" transform="translate(300,32)"/>
<path d="M0 0 C1.98 0.99 1.98 0.99 4 2 C4 2.66 4 3.32 4 4 C5.32 3.34 6.64 2.68 8 2 C8.33 2.66 8.66 3.32 9 4 C8.01 4.495 8.01 4.495 7 5 C6.34786708 7.02463255 6.34786708 7.02463255 6 9 C4.99406757 7.8803014 3.9954151 6.7540588 3 5.625 C2.443125 4.99851562 1.88625 4.37203125 1.3125 3.7265625 C0 2 0 2 0 0 Z " fill="#17AA7D" transform="translate(79,312)"/>
<path d="M0 0 C1.67299959 0.65061095 3.33859237 1.32033324 5 2 C5.721875 2.268125 6.44375 2.53625 7.1875 2.8125 C9.6687326 4.43813515 10.12585259 6.23186652 11 9 C8.03469503 7.64199529 5.70868729 6.07571737 3.25 3.9375 C2.63640625 3.41027344 2.0228125 2.88304687 1.390625 2.33984375 C0.93171875 1.89769531 0.4728125 1.45554688 0 1 C0 0.67 0 0.34 0 0 Z " fill="#1FAB7C" transform="translate(91,208)"/>
<path d="M0 0 C1.98 0 3.96 0 6 0 C6 0.66 6 1.32 6 2 C7.32 2.66 8.64 3.32 10 4 C10 4.66 10 5.32 10 6 C5.56909529 4.79157144 3.01887244 3.48331435 0 0 Z " fill="#19AB7D" transform="translate(106,220)"/>
<path d="M0 0 C0.66 0 1.32 0 2 0 C2 0.66 2 1.32 2 2 C2.99 2 3.98 2 5 2 C5.66 4.64 6.32 7.28 7 10 C3.66442368 7.0094833 1.84916079 4.06815373 0 0 Z " fill="#1EAC7C" transform="translate(72,184)"/>
<path d="M0 0 C1.25127906 3.54667178 0.72285053 5.72253438 -0.4375 9.25 C-0.72496094 10.14203125 -1.01242188 11.0340625 -1.30859375 11.953125 C-1.53675781 12.62859375 -1.76492187 13.3040625 -2 14 C-2.66 14 -3.32 14 -4 14 C-2.85248597 9.2460133 -1.61737483 4.62107093 0 0 Z " fill="#24A980" transform="translate(63,80)"/>
<path d="M0 0 C1.6875 2.1875 1.6875 2.1875 1.6875 4.1875 C-2.08795388 3.09681332 -4.78293472 2.2791909 -7.3125 -0.8125 C-3.91460918 -1.94513027 -2.90750063 -2.27885184 0 0 Z " fill="#1FAF7E" transform="translate(125.3125,227.8125)"/>
<path d="M0 0 C2.0625 2.3125 2.0625 2.3125 4 5 C3.67 5.99 3.34 6.98 3 8 C0.9375 8.6875 0.9375 8.6875 -1 9 C-1 8.01 -1 7.02 -1 6 C-0.01 6 0.98 6 2 6 C2 5.34 2 4.68 2 4 C1.34 4 0.68 4 0 4 C0 2.68 0 1.36 0 0 Z " fill="#1FA47A" transform="translate(321,68)"/>
<path d="M0 0 C1.6875 2.375 1.6875 2.375 3 5 C2.67 5.66 2.34 6.32 2 7 C1.34 5.68 0.68 4.36 0 3 C-1.98 3 -3.96 3 -6 3 C-2.25 0 -2.25 0 0 0 Z " fill="#1FA971" transform="translate(297,25)"/>
<path d="M0 0 C1.32 0.33 2.64 0.66 4 1 C3.67 1.66 3.34 2.32 3 3 C2.34 3 1.68 3 1 3 C0.67 3.99 0.34 4.98 0 6 C-0.66 6 -1.32 6 -2 6 C-1.34 4.02 -0.68 2.04 0 0 Z " fill="#10B677" transform="translate(66,74)"/>
<path d="M0 0 C4 4.75 4 4.75 4 7 C3.01 7 2.02 7 1 7 C1 6.34 1 5.68 1 5 C0.34 5 -0.32 5 -1 5 C-0.67 3.35 -0.34 1.7 0 0 Z " fill="#17AB7A" transform="translate(317,61)"/>
<path d="M0 0 C-6.625 3 -6.625 3 -10 3 C-10 2.34 -10 1.68 -10 1 C-3.375 -1.125 -3.375 -1.125 0 0 Z " fill="#18AD7C" transform="translate(227,232)"/>
<path d="M0 0 C0.66 0.33 1.32 0.66 2 1 C0.02 5.455 0.02 5.455 -2 10 C-2.95514044 6.17943822 -3.08352672 4.64458987 -2 1 C-1.34 0.67 -0.68 0.34 0 0 Z " fill="#1BAA7A" transform="translate(117,91)"/>
<path d="M0 0 C1.65 0 3.3 0 5 0 C4.505 0.350625 4.01 0.70125 3.5 1.0625 C1.26936034 3.94374289 1.80019379 6.47009026 2 10 C-0.4294516 6.3558226 -0.16179575 4.28758728 0 0 Z " fill="#1BA878" transform="translate(293,90)"/>
<path d="M0 0 C2.64 0.66 5.28 1.32 8 2 C8 3.32 8 4.64 8 6 C4.63408134 4.55746343 2.48952921 2.66735273 0 0 Z " fill="#1FAD7D" transform="translate(214,70)"/>
<path d="M0 0 C-2.17424117 2.50037734 -3.73045798 3.43628586 -7 4 C-7 3.01 -7 2.02 -7 1 C-4.53721199 -0.231394 -2.7204945 -0.07159196 0 0 Z " fill="#19AC7D" transform="translate(240,342)"/>
<path d="M0 0 C1.32 0 2.64 0 4 0 C2.70700306 2.88437779 1.34058637 4.87219421 -1 7 C-1 5.68 -1 4.36 -1 3 C-0.34 3 0.32 3 1 3 C0.67 2.01 0.34 1.02 0 0 Z " fill="#13AB7C" transform="translate(276,185)"/>
<path d="M0 0 C1.65 0.99 3.3 1.98 5 3 C3.35 4.32 1.7 5.64 0 7 C-0.93423645 3.98968256 -1.04449911 3.13349732 0 0 Z " fill="#13AF79" transform="translate(252,32)"/>
</svg>
