<?xml version="1.0" encoding="UTF-8"?>
<svg version="1.1" xmlns="http://www.w3.org/2000/svg" width="368" height="369">
<path d="M0 0 C1.010625 0.763125 2.02125 1.52625 3.0625 2.3125 C3.701875 2.869375 4.34125 3.42625 5 4 C5 4.66 5 5.32 5 6 C6.72712829 6.78730913 6.72712829 6.78730913 9 7 C11.69076414 5.89307019 11.69076414 5.89307019 14.46484375 4.140625 C15.51220703 3.51929688 16.55957031 2.89796875 17.63867188 2.2578125 C18.72728516 1.59523438 19.81589844 0.93265625 20.9375 0.25 C22.02224609 -0.39710937 23.10699219 -1.04421875 24.22460938 -1.7109375 C29.98219327 -5.14881554 29.98219327 -5.14881554 35.66235352 -8.71191406 C38 -10 38 -10 41 -10 C41.31525635 -9.43418213 41.6305127 -8.86836426 41.95532227 -8.28540039 C47.25569974 1.20774204 52.56398221 10.6912633 58.203125 19.98828125 C58.54733994 20.55647079 58.89155487 21.12466034 59.24620056 21.71006775 C60.92895688 24.48348703 62.62127947 27.25054422 64.32446289 30.01147461 C64.93539795 31.01315674 65.54633301 32.01483887 66.17578125 33.046875 C66.72145752 33.93213867 67.26713379 34.81740234 67.8293457 35.72949219 C69 38 69 38 69 41 C68.34515625 41.36762451 67.6903125 41.73524902 67.015625 42.11401367 C64.00930716 43.80320974 61.0046464 45.4953328 58 47.1875 C56.97003906 47.76564453 55.94007813 48.34378906 54.87890625 48.93945312 C49.1610505 52.16257564 43.53306643 55.46867996 38 59 C38.2165625 59.80695313 38.433125 60.61390625 38.65625 61.4453125 C45.54739698 91.49837015 41.08814027 123.25679792 25.875 150.015625 C20.16471014 159.10450302 13.34851918 167.20323474 6 175 C5.12408203 175.95519531 5.12408203 175.95519531 4.23046875 176.9296875 C-10.08079514 192.01181572 -31.12425525 201.76695472 -51 207 C-52.75763672 207.48146484 -52.75763672 207.48146484 -54.55078125 207.97265625 C-86.43360909 215.33550049 -120.37164381 208.68798297 -148.22851562 192.12402344 C-153.44665584 188.81306457 -158.23843519 184.92845118 -163 181 C-163.56187012 180.5570459 -164.12374023 180.1140918 -164.70263672 179.65771484 C-166.17205985 178.48329442 -167.59071675 177.24594879 -169 176 C-169 175.34 -169 174.68 -169 174 C-169.99 173.67 -170.98 173.34 -172 173 C-175.2438313 169.53614139 -178.09830117 165.75228057 -181 162 C-181.61488281 161.21109375 -182.22976562 160.4221875 -182.86328125 159.609375 C-201.30198271 134.68533717 -208.14038561 102.70648091 -204.1159668 72.22558594 C-199.23837389 40.77945753 -181.19446133 12.21221917 -155.5625 -6.5703125 C-107.67076285 -40.36148715 -44.88058381 -36.51301733 0 0 Z M-133.6875 47.6875 C-145.42139877 61.95998264 -150.49559891 78.46093875 -149.22314453 96.82177734 C-147.60014547 112.66466319 -140.19167532 125.94133271 -129 137 C-128.31292969 137.70898438 -127.62585938 138.41796875 -126.91796875 139.1484375 C-114.02300788 151.63669274 -96.17505608 156.39663851 -78.6015625 156.21484375 C-59.20286987 155.05765493 -43.4415127 146.74503073 -30 133 C-18.49718468 119.60686189 -12.75617295 102.62885647 -14 85 C-15.85098624 68.84089008 -22.23472197 55.29150844 -34 44 C-34.74765625 43.22140625 -35.4953125 42.4428125 -36.265625 41.640625 C-47.3090867 30.74343432 -63.08129108 24.68679338 -78.53540039 24.58227539 C-79.9719397 24.60342407 -79.9719397 24.60342407 -81.4375 24.625 C-82.95234985 24.6413147 -82.95234985 24.6413147 -84.49780273 24.65795898 C-104.08906618 25.07687973 -120.23410575 33.50689525 -133.6875 47.6875 Z " fill="#495758" transform="translate(259,35)"/>
<path d="M0 0 C18.15 0 36.3 0 55 0 C56.03229377 3.09688131 57.06349375 6.19416205 58.078125 9.296875 C64.42421863 27.99669756 75.436988 41.59201623 93.1484375 50.6015625 C110.15146231 58.07589989 130.64189281 58.72626654 148 52 C155.57352627 48.57032198 161.87279126 44.58256796 168 39 C168.66 39 169.32 39 170 39 C170.25265625 38.43152344 170.5053125 37.86304688 170.765625 37.27734375 C172.1577975 34.70887359 173.83287454 32.76570814 175.75 30.5625 C182.35074234 22.4163933 186.04012867 13.18321792 188.45703125 3.046875 C189 1 189 1 190 0 C191.68255235 -0.0987517 193.36924028 -0.12798904 195.0546875 -0.12939453 C196.67141357 -0.13412277 196.67141357 -0.13412277 198.32080078 -0.13894653 C199.49368652 -0.1369223 200.66657227 -0.13489807 201.875 -0.1328125 C203.0697998 -0.13376923 204.26459961 -0.13472595 205.49560547 -0.13571167 C208.0276698 -0.13639371 210.55973588 -0.13453778 213.09179688 -0.13037109 C216.9831126 -0.12502321 220.87431289 -0.13031533 224.765625 -0.13671875 C227.21875026 -0.13605797 229.67187544 -0.13477682 232.125 -0.1328125 C233.29788574 -0.13483673 234.47077148 -0.13686096 235.67919922 -0.13894653 C236.7570166 -0.13579437 237.83483398 -0.13264221 238.9453125 -0.12939453 C239.89937988 -0.12859894 240.85344727 -0.12780334 241.83642578 -0.12698364 C244 0 244 0 245 1 C245.73454317 28.59783637 229.92544805 55.84995477 211.66137695 75.38208008 C189.99368102 97.70066332 158.9965106 111.04562283 128 112 C127.15050781 112.03996094 126.30101562 112.07992187 125.42578125 112.12109375 C90.66761975 113.02597697 59.07185868 99.60212904 34 76 C33.39671875 75.46117187 32.7934375 74.92234375 32.171875 74.3671875 C14.98350909 58.38361359 3.20128399 33.0492447 0 10 C0 6.7 0 3.4 0 0 Z " fill="#495758" transform="translate(55,253)"/>
<path d="M0 0 C2.61715838 2.38923768 4.36199113 4.97100751 6.1875 8 C6.98220703 9.299375 6.98220703 9.299375 7.79296875 10.625 C9 13 9 13 9 16 C7.35 16.33 5.7 16.66 4 17 C4.66 16.01 5.32 15.02 6 14 C5.34 13.67 4.68 13.34 4 13 C4 13.66 4 14.32 4 15 C3.01 14.67 2.02 14.34 1 14 C1.66 13.01 2.32 12.02 3 11 C2.34 10.67 1.68 10.34 1 10 C1.33 9.01 1.66 8.02 2 7 C1.40206327 4.64811553 0.74118205 2.31074405 0 0 Z " fill="#3F4A4B" transform="translate(319,60)"/>
<path d="M0 0 C1 2 1 2 0.4375 4.3125 C-1.09721495 7.18174969 -2.85566964 8.76433481 -5.41796875 10.734375 C-7.26162563 12.15156829 -7.26162563 12.15156829 -9.625 14.75 C-11.90204267 16.90719832 -12.94743703 17.66082634 -16 18 C-15.360625 17.38125 -14.72125 16.7625 -14.0625 16.125 C-9.04616332 11.10866332 -3.93890352 5.90835528 0 0 Z " fill="#414F4F" transform="translate(234,160)"/>
<path d="M0 0 C0.99 0.66 1.98 1.32 3 2 C1.44233138 3.44273385 -0.12135957 4.87896708 -1.6875 6.3125 C-2.99267578 7.51326172 -2.99267578 7.51326172 -4.32421875 8.73828125 C-6.78170312 10.81548337 -9.19503316 12.43831576 -12 14 C-12 13.01 -12 12.02 -12 11 C-10.28515625 9.7890625 -10.28515625 9.7890625 -8.0625 8.625 C-4.62917521 6.71551932 -4.62917521 6.71551932 -3 3.1875 C-3 2.465625 -3 1.74375 -3 1 C-2.34 1.33 -1.68 1.66 -1 2 C-0.67 1.34 -0.34 0.68 0 0 Z " fill="#404A4B" transform="translate(261,209)"/>
<path d="M0 0 C0.99 0.33 1.98 0.66 3 1 C2.4375 2.875 2.4375 2.875 1 5 C-1.31847874 5.7166207 -3.65319703 6.38242027 -6 7 C-7.90170054 8.47761659 -7.90170054 8.47761659 -9 10 C-9.99 9.67 -10.98 9.34 -12 9 C-10.07158542 7.46623771 -8.13378206 5.9482818 -6.1875 4.4375 C-5.64029297 3.99986328 -5.09308594 3.56222656 -4.52929688 3.11132812 C-3.0778042 1.99411861 -1.54189429 0.98871133 0 0 Z " fill="#464F51" transform="translate(107,26)"/>
<path d="M0 0 C3.33333333 0 6.66666667 0 10 0 C10 1.98 10 3.96 10 6 C6.00499382 4.6302836 3.19990508 2.74277578 0 0 Z " fill="#444E4F" transform="translate(101,339)"/>
<path d="M0 0 C0.66 0.33 1.32 0.66 2 1 C3.70363822 1.22622081 5.41328701 1.40888473 7.125 1.5625 C8.03507813 1.64628906 8.94515625 1.73007812 9.8828125 1.81640625 C10.58148438 1.87699219 11.28015625 1.93757813 12 2 C12 2.33 12 2.66 12 3 C5.61773055 3.82351864 -0.56744599 4.12086218 -7 4 C-7 3.67 -7 3.34 -7 3 C-5.5459375 2.5359375 -5.5459375 2.5359375 -4.0625 2.0625 C-1.15934208 1.30476658 -1.15934208 1.30476658 0 0 Z " fill="#434C4C" transform="translate(180,361)"/>
<path d="M0 0 C6.30596952 1.10938353 11.37529486 2.93197901 17 6 C12.92320841 7.6852084 10.16924407 6.16939007 6.25 4.5625 C5.07953125 4.08941406 3.9090625 3.61632812 2.703125 3.12890625 C1.81109375 2.75636719 0.9190625 2.38382812 0 2 C0 1.34 0 0.68 0 0 Z " fill="#424C4C" transform="translate(127,353)"/>
<path d="M0 0 C2 4 2 4 1.125 6.75 C0.75375 7.4925 0.3825 8.235 0 9 C-2 9 -4 9 -6 9 C-4.02 6.03 -2.04 3.06 0 0 Z " fill="#414C4C" transform="translate(237,274)"/>
<path d="M0 0 C5.46428571 0.60714286 5.46428571 0.60714286 7.875 2.375 C9 4 9 4 9 7 C5.7 5.35 2.4 3.7 -1 2 C-0.67 1.34 -0.34 0.68 0 0 Z " fill="#464F4F" transform="translate(114,346)"/>
<path d="M0 0 C0.66 0.33 1.32 0.66 2 1 C1.175 1.598125 0.35 2.19625 -0.5 2.8125 C-1.7375 3.8953125 -1.7375 3.8953125 -3 5 C-3 5.99 -3 6.98 -3 8 C-5.475 7.01 -5.475 7.01 -8 6 C-7 3 -7 3 -3.5625 1.25 C-2.386875 0.8375 -1.21125 0.425 0 0 Z " fill="#454E50" transform="translate(207,303)"/>
<path d="M0 0 C-1.95245185 1.19714555 -3.91214997 2.38248074 -5.875 3.5625 C-6.96554687 4.22378906 -8.05609375 4.88507813 -9.1796875 5.56640625 C-10.57574219 6.27603516 -10.57574219 6.27603516 -12 7 C-12.66 6.67 -13.32 6.34 -14 6 C-3.55905512 -1.77952756 -3.55905512 -1.77952756 0 0 Z " fill="#434B4C" transform="translate(322,79)"/>
<path d="M0 0 C1.31611677 0.95336021 2.62778961 1.91285774 3.9375 2.875 C4.66839844 3.40867188 5.39929688 3.94234375 6.15234375 4.4921875 C8 6 8 6 9 8 C4.25 6.125 4.25 6.125 2 5 C1.34 5.66 0.68 6.32 0 7 C0 4.69 0 2.38 0 0 Z " fill="#424C4D" transform="translate(130,172)"/>
<path d="M0 0 C2 1 2 1 3 2 C3.66 1.67 4.32 1.34 5 1 C3.60667426 4.36720387 2.0210714 5.9859524 -1 8 C-1.66 7.67 -2.32 7.34 -3 7 C-2.01 4.69 -1.02 2.38 0 0 Z " fill="#445051" transform="translate(241,145)"/>
<path d="M0 0 C0.99 0.495 0.99 0.495 2 1 C2 2.32 2 3.64 2 5 C2.66 5.33 3.32 5.66 4 6 C4 8 4 10 4 12 C3.34 12 2.68 12 2 12 C1.34 8.04 0.68 4.08 0 0 Z " fill="#424E4F" transform="translate(55,141)"/>
<path d="M0 0 C2.64 0.99 5.28 1.98 8 3 C7.01 3.495 7.01 3.495 6 4 C5.67 4.66 5.34 5.32 5 6 C2.5 4.6875 2.5 4.6875 0 3 C0 2.01 0 1.02 0 0 Z " fill="#464F50" transform="translate(145,183)"/>
<path d="M0 0 C0.33 0 0.66 0 1 0 C2.03590199 5.05002222 2.10251672 9.87416389 2 15 C1.67 15 1.34 15 1 15 C0.63355422 13.44033408 0.28239138 11.87707349 -0.0625 10.3125 C-0.25972656 9.44238281 -0.45695312 8.57226562 -0.66015625 7.67578125 C-1.02032279 4.83998724 -0.70909969 2.75210018 0 0 Z " fill="#434C4C" transform="translate(298,104)"/>
<path d="M0 0 C0.66 0.33 1.32 0.66 2 1 C2.5625 2.8125 2.5625 2.8125 3 5 C3.185625 5.7425 3.37125 6.485 3.5625 7.25 C3.706875 7.8275 3.85125 8.405 4 9 C-0.875 4.375 -0.875 4.375 -2 1 C-1.34 0.67 -0.68 0.34 0 0 Z " fill="#3F4C4C" transform="translate(79,313)"/>
<path d="M0 0 C2.64 0.99 5.28 1.98 8 3 C6.68 3.99 5.36 4.98 4 6 C2.62437146 4.71034824 1.29233607 3.37310707 0 2 C0 1.34 0 0.68 0 0 Z " fill="#3D4747" transform="translate(149,304)"/>
</svg>
