<svg version="1.1" id="Layer_1" xmlns="http://www.w3.org/2000/svg" xmlns:xlink="http://www.w3.org/1999/xlink" x="0px" y="0px"
	 width="100%" viewBox="0 0 500 500" enable-background="new 0 0 500 500" xml:space="preserve">
<path fill="#FFFFFF" opacity="1.000000" stroke="none" 
	d="
M280.000000,501.000000 
	C186.666687,501.000000 93.833374,501.000000 1.000050,501.000000 
	C1.000033,334.333405 1.000033,167.666794 1.000017,1.000139 
	C167.666565,1.000093 334.333130,1.000093 500.999756,1.000046 
	C500.999847,167.666519 500.999847,334.333038 500.999939,500.999786 
	C427.500000,501.000000 354.000000,501.000000 280.000000,501.000000 
M227.280762,12.793673 
	C207.715897,14.449453 188.868652,19.024847 171.303329,27.854420 
	C113.117676,57.102646 81.212311,103.758461 78.896591,169.422348 
	C77.713326,202.974609 87.731110,233.481003 106.926781,260.753296 
	C133.537903,298.561127 170.305573,320.864471 215.689560,328.447296 
	C246.523483,333.599030 276.756561,330.168274 305.690216,317.961853 
	C345.420227,301.200684 374.511719,273.278259 392.305450,233.899139 
	C404.105988,207.783539 407.516968,180.340317 404.138794,152.015411 
	C403.260956,144.654877 401.656372,137.381012 400.368042,129.966217 
	C415.091827,121.423599 429.814606,112.881561 444.874908,104.143715 
	C431.899384,81.783638 419.152100,59.816822 406.340759,37.739697 
	C391.413452,46.422829 376.976196,54.820896 362.605560,63.180206 
	C319.914337,19.344540 265.444824,8.944827 227.280762,12.793673 
M273.443909,487.035919 
	C279.258789,485.634369 285.207916,484.639069 290.867615,482.768066 
	C343.891144,465.239471 380.462341,430.699402 398.203613,377.372162 
	C401.827301,366.480072 403.349243,354.888702 405.925415,343.233490 
	C380.416931,343.233490 356.175323,343.233490 331.976227,343.233490 
	C323.137604,392.639038 282.365784,417.834991 244.578979,418.879822 
	C224.885223,419.424408 206.776932,414.047913 190.405380,403.065308 
	C168.946426,388.669922 156.783478,368.250458 152.220474,343.307648 
	C127.635468,343.307648 103.385185,343.307648 79.112991,343.307648 
	C86.902534,437.120605 175.911255,504.791840 273.443909,487.035919 
z"/>
<path fill="#010101" opacity="1.000000" stroke="none" 
	d="
M227.738312,12.755945 
	C265.444824,8.944827 319.914337,19.344540 362.605560,63.180206 
	C376.976196,54.820896 391.413452,46.422829 406.340759,37.739697 
	C419.152100,59.816822 431.899384,81.783638 444.874908,104.143715 
	C429.814606,112.881561 415.091827,121.423599 400.368042,129.966217 
	C401.656372,137.381012 403.260956,144.654877 404.138794,152.015411 
	C407.516968,180.340317 404.105988,207.783539 392.305450,233.899139 
	C374.511719,273.278259 345.420227,301.200684 305.690216,317.961853 
	C276.756561,330.168274 246.523483,333.599030 215.689560,328.447296 
	C170.305573,320.864471 133.537903,298.561127 106.926781,260.753296 
	C87.731110,233.481003 77.713326,202.974609 78.896591,169.422348 
	C81.212311,103.758461 113.117676,57.102646 171.303329,27.854420 
	C188.868652,19.024847 207.715897,14.449453 227.738312,12.755945 
M202.538040,91.985062 
	C199.486435,93.666527 196.383102,95.261124 193.391068,97.042648 
	C155.772949,119.441376 141.010345,168.496490 159.562408,207.646423 
	C182.582474,256.225128 240.539841,272.114960 284.536774,249.191360 
	C319.361420,231.046738 339.420715,193.461884 330.518433,152.984802 
	C318.149933,96.747635 255.548950,67.046051 202.538040,91.985062 
z"/>
<path fill="#010101" opacity="1.000000" stroke="none" 
	d="
M273.018402,487.085480 
	C175.911255,504.791840 86.902534,437.120605 79.112991,343.307648 
	C103.385185,343.307648 127.635468,343.307648 152.220474,343.307648 
	C156.783478,368.250458 168.946426,388.669922 190.405380,403.065308 
	C206.776932,414.047913 224.885223,419.424408 244.578979,418.879822 
	C282.365784,417.834991 323.137604,392.639038 331.976227,343.233490 
	C356.175323,343.233490 380.416931,343.233490 405.925415,343.233490 
	C403.349243,354.888702 401.827301,366.480072 398.203613,377.372162 
	C380.462341,430.699402 343.891144,465.239471 290.867615,482.768066 
	C285.207916,484.639069 279.258789,485.634369 273.018402,487.085480 
z"/>
<path fill="#FEFEFE" opacity="1.000000" stroke="none" 
	d="
M202.889069,91.842529 
	C255.548950,67.046051 318.149933,96.747635 330.518433,152.984802 
	C339.420715,193.461884 319.361420,231.046738 284.536774,249.191360 
	C240.539841,272.114960 182.582474,256.225128 159.562408,207.646423 
	C141.010345,168.496490 155.772949,119.441376 193.391068,97.042648 
	C196.383102,95.261124 199.486435,93.666527 202.889069,91.842529 
z"/>
</svg>