<?xml version="1.0" encoding="UTF-8"?>
<svg version="1.1" xmlns="http://www.w3.org/2000/svg" width="500" height="500">
<path d="M0 0 C0.61149902 0.28601074 1.22299805 0.57202148 1.85302734 0.86669922 C19.98259624 9.39436038 35.81362152 20.81362152 50 35 C54.19512256 34.67126417 57.26598203 32.92203656 60.859375 30.83203125 C61.97570312 30.18556641 63.09203125 29.53910156 64.2421875 28.87304688 C64.81936523 28.53394287 65.39654297 28.19483887 65.99121094 27.84545898 C67.72666787 26.82620326 69.46877039 25.81829027 71.2109375 24.81054688 C76.93070146 21.48059234 82.52992552 18.09058082 87.91113281 14.2331543 C90.49724498 12.70645343 93.13471141 11.87114755 96 11 C96.61705811 12.0837793 96.61705811 12.0837793 97.24658203 13.18945312 C104.61907558 26.13168465 112.00343707 39.06660851 119.5 51.9375 C120.07395508 52.92322998 120.64791016 53.90895996 121.23925781 54.92456055 C124.94821154 61.26816901 128.75885873 67.53203833 132.7421875 73.70703125 C134 76 134 76 134 79 C131.67388352 80.61735348 129.40537121 82.00230526 126.9375 83.375 C126.19612793 83.79910156 125.45475586 84.22320312 124.69091797 84.66015625 C122.13384128 86.11865637 119.56725096 87.5594895 117 89 C114.95144326 90.1581829 112.9032802 91.31706234 110.85546875 92.4765625 C107.76664173 94.22488243 104.67670233 95.97097369 101.58178711 97.70849609 C100.63956299 98.23781738 99.69733887 98.76713867 98.7265625 99.3125 C97.88689941 99.78300781 97.04723633 100.25351563 96.18212891 100.73828125 C94.41517525 101.75994342 92.69826312 102.86782459 91 104 C91.52750426 108.36855471 92.09999758 112.72273893 92.75390625 117.07421875 C99.15146215 160.6716577 90.80724923 202.90888986 64.30859375 238.6796875 C55.39173872 250.41867462 45.77028309 261.04581616 34 270 C32.74316406 270.98033203 32.74316406 270.98033203 31.4609375 271.98046875 C18.3920273 281.8709884 4.33884597 289.33379837 -11 295 C-12.22074219 295.46148437 -13.44148437 295.92296875 -14.69921875 296.3984375 C-43.09007551 306.52706748 -74.55004265 307.91962179 -104 302 C-104.66708984 301.86609863 -105.33417969 301.73219727 -106.02148438 301.59423828 C-140.06602136 294.37770616 -174.18693749 274.20449972 -196 247 C-196.74378906 246.10539062 -197.48757812 245.21078125 -198.25390625 244.2890625 C-224.24928848 211.98807112 -236.42766077 170.71819066 -232.5390625 129.484375 C-230.42967574 110.73686644 -225.33724469 92.91902395 -217 76 C-216.44441406 74.87207031 -215.88882813 73.74414062 -215.31640625 72.58203125 C-196.26773005 35.76045624 -162.42944151 6.74722531 -123 -6.0625 C-83.24480786 -18.54530476 -38.06134264 -18.09804239 0 0 Z M-134.59375 84.54296875 C-151.1744991 101.47363625 -159.27650683 123.65046133 -159.24658203 147.11791992 C-158.94211462 170.20113789 -149.8442138 189.46165874 -134 206 C-133.195625 206.86625 -132.39125 207.7325 -131.5625 208.625 C-111.10708393 227.58367831 -88.18743816 233.88189596 -60.69970703 233.13623047 C-38.39161723 232.01053739 -16.67708168 220.50079063 -1.53515625 204.375 C15.80576365 183.98089249 22.70252373 161.3969275 21 135 C19.0049843 113.00982696 6.59768977 92.58914213 -9.98828125 78.453125 C-48.96472836 48.32347198 -98.84095156 51.33586007 -134.59375 84.54296875 Z " fill="#FDFDFD" transform="translate(310,25)"/>
<path d="M0 0 C2.04881966 -0.0458925 4.09953847 0.00688509 6.14743042 0.08374023 C8.81015623 2.74646604 8.79592646 4.76801884 9.45993042 8.45874023 C13.74352884 29.18038381 26.55118806 48.2143589 44.14743042 60.08374023 C66.55652811 73.90406782 91.2397411 79.29460832 117.20846558 73.63452148 C132.27935078 69.99333153 146.70702018 62.55095868 158.14743042 52.08374023 C158.77778198 51.52170898 159.40813354 50.95967773 160.05758667 50.38061523 C173.64466555 37.59980257 181.52990385 19.08625481 185.14743042 1.08374023 C189.49067409 0.24403599 193.54304865 -0.01775106 197.96310425 0.04614258 C198.61586334 0.05414383 199.26862244 0.06214508 199.94116211 0.07038879 C202.07904331 0.09806572 204.21670686 0.13360822 206.35446167 0.16967773 C207.84564234 0.19146524 209.33682799 0.21291398 210.82801819 0.23403931 C213.94228546 0.27938941 217.05646082 0.32860421 220.17062378 0.38061523 C224.17000761 0.44712859 228.16946102 0.50428743 232.16902637 0.55864525 C235.24274081 0.60137654 238.31636822 0.64882302 241.38998985 0.69774246 C242.86562652 0.72068877 244.34128633 0.74219229 245.8169651 0.76224899 C247.8709977 0.79090718 249.9248267 0.82585307 251.97872925 0.86254883 C253.14865921 0.88110931 254.31858917 0.8996698 255.52397156 0.91879272 C258.14743042 1.08374023 258.14743042 1.08374023 259.14743042 2.08374023 C259.43600424 39.94462555 237.57463393 76.07080874 212.08493042 102.39624023 C177.76296824 135.65230297 133.90763865 148.88080081 87.04196167 148.36108398 C76.44812032 148.17896951 66.40207165 146.75462201 56.14743042 144.08374023 C55.30228882 143.86943359 54.45714722 143.65512695 53.58639526 143.43432617 C24.29990033 135.82902584 -0.01958063 120.85626972 -21.85256958 100.08374023 C-22.54866333 99.45209961 -23.24475708 98.82045898 -23.96194458 98.16967773 C-35.35660943 87.48129376 -43.75936155 73.87686263 -50.85256958 60.08374023 C-51.17064575 59.47739746 -51.48872192 58.87105469 -51.81643677 58.24633789 C-60.79577374 40.95853394 -66.99663376 20.63097501 -66.85256958 1.08374023 C-58.66345552 0.95251441 -50.47432958 0.82206682 -42.28518772 0.69258881 C-38.48187725 0.63243095 -34.67857128 0.57201385 -30.87527466 0.51098633 C-27.19889725 0.45200519 -23.52250927 0.39372847 -19.8461132 0.33592224 C-18.4496312 0.31384413 -17.05315306 0.29152025 -15.65667915 0.26893616 C-12.48235746 0.21767078 -9.30809702 0.17002577 -6.13360596 0.13037109 C-4.08881535 0.10131005 -2.04411651 0.06000723 0 0 Z " fill="#FDFDFD" transform="translate(144.85256958007813,340.916259765625)"/>
</svg>
